<svg viewBox="0 0 1040 1299" xmlns="http://www.w3.org/2000/svg" font-family="Georgia, 'Times New Roman', serif">
<defs>
  <radialGradient id="parch" cx="50%" cy="42%" r="78%">
    <stop offset="0%" stop-color="#efe2c4"/><stop offset="60%" stop-color="#e7d6b2"/><stop offset="100%" stop-color="#d6bf8e"/></radialGradient>
  <radialGradient id="landg" cx="44%" cy="36%" r="85%">
    <stop offset="0%" stop-color="#cdb487"/><stop offset="70%" stop-color="#b59a64"/><stop offset="100%" stop-color="#9c8050"/></radialGradient>
</defs>
<rect width="1040" height="1299" fill="url(#parch)"/>
<path d="M 61.6 253.0 L 63.3 248.7 L 65.0 244.2 L 66.8 239.6 L 68.7 234.7 L 70.7 229.5 L 72.8 224.2 L 75.0 218.7 L 77.2 212.9 L 79.6 207.0 L 82.0 201.6 L 84.6 196.9 L 87.3 192.8 L 90.1 189.3 L 93.0 186.4 L 96.0 184.1 L 99.1 182.5 L 102.4 181.4 L 105.6 180.4 L 108.8 179.4 L 112.0 178.3 L 115.3 177.3 L 118.5 176.3 L 121.7 175.2 L 124.9 174.2 L 128.2 173.2 L 131.4 172.2 L 134.6 171.1 L 137.8 170.1 L 141.1 169.1 L 144.3 168.0 L 147.5 167.0 L 150.7 166.0 L 154.0 164.9 L 157.2 163.9 L 160.4 162.9 L 163.6 161.8 L 166.9 160.8 L 170.1 159.8 L 173.3 158.7 L 176.5 157.7 L 179.8 156.7 L 183.0 155.6 L 186.2 154.6 L 189.4 153.6 L 192.7 152.5 L 195.9 151.5 L 199.1 150.5 L 202.3 149.5 L 205.6 148.4 L 208.8 147.4 L 212.0 146.4 L 215.2 145.3 L 218.5 144.3 L 221.7 143.3 L 224.9 142.2 L 228.2 141.2 L 231.4 140.2 L 234.6 139.1 L 237.8 138.1 L 241.1 137.1 L 244.3 136.0 L 247.5 135.0 L 250.7 134.0 L 254.0 132.9 L 257.2 131.9 L 260.4 130.9 L 263.6 129.8 L 266.9 128.8 L 270.1 127.8 L 273.3 126.8 L 276.5 125.7 L 279.8 124.7 L 283.0 123.7 L 286.2 122.6 L 289.4 121.6 L 292.7 120.6 L 295.9 119.5 L 299.1 118.5 L 302.3 117.5 L 305.6 116.4 L 308.8 115.4 L 312.0 114.4 L 315.2 113.3 L 318.5 112.3 L 321.7 111.3 L 324.9 110.2 L 328.1 109.2 L 331.4 108.2 L 334.6 107.1 L 337.8 106.1 L 341.0 105.1 L 344.3 104.1 L 347.5 103.0 L 350.7 102.0 L 354.0 101.0 L 357.2 99.9 L 360.4 98.9 L 363.6 97.9 L 366.9 96.8 L 370.1 95.8 L 373.3 94.8 L 376.5 93.7 L 379.8 92.7 L 383.0 91.7 L 386.2 90.6 L 389.4 89.6 L 392.7 88.6 L 395.9 87.5 L 399.1 86.5 L 402.3 85.5 L 405.6 84.4 L 408.8 83.4 L 412.0 82.4 L 415.2 81.4 L 418.5 80.3 L 421.7 79.3 L 424.9 78.3 L 428.1 77.2 L 431.4 76.2 L 434.6 75.2 L 437.8 74.1 L 441.0 73.1 L 444.3 72.1 L 447.5 71.0 L 450.7 70.0 L 453.9 69.0 L 457.2 67.9 L 460.4 66.9 L 463.6 65.9 L 466.9 64.8 L 470.1 63.8 L 473.3 62.8 L 476.5 61.7 L 479.8 60.7 L 483.0 59.7 L 486.2 58.7 L 489.4 57.6 L 492.7 56.6 L 495.9 55.6 L 499.1 54.5 L 502.3 53.5 L 505.6 52.5 L 508.8 51.4 L 512.0 50.4 L 515.2 49.4 L 518.5 48.6 L 521.7 48.2 L 524.9 48.1 L 528.1 48.2 L 531.2 48.7 L 534.4 49.4 L 537.6 50.5 L 540.7 51.8 L 543.9 53.2 L 547.1 54.5 L 550.2 55.9 L 553.4 57.2 L 556.5 58.6 L 559.7 59.9 L 562.9 61.3 L 566.0 62.6 L 569.2 64.0 L 572.3 65.3 L 575.5 66.7 L 578.7 68.0 L 581.8 69.4 L 585.0 70.7 L 588.1 72.1 L 591.3 73.4 L 594.4 74.8 L 597.6 76.1 L 600.8 77.5 L 603.9 78.8 L 607.1 80.2 L 610.2 81.5 L 613.4 82.9 L 616.6 84.2 L 619.7 85.6 L 622.9 86.9 L 626.0 88.3 L 629.2 89.6 L 632.4 91.0 L 635.5 92.3 L 638.7 93.7 L 641.8 95.0 L 645.0 96.4 L 648.2 97.7 L 651.3 99.1 L 654.5 100.4 L 657.6 101.7 L 660.8 103.1 L 664.0 104.4 L 667.1 105.8 L 670.3 107.1 L 673.4 108.5 L 676.6 109.8 L 679.8 111.2 L 682.9 112.5 L 686.1 113.9 L 689.2 115.2 L 692.4 116.6 L 695.5 117.9 L 698.7 119.3 L 701.9 120.6 L 705.0 122.0 L 708.2 123.3 L 711.3 124.7 L 714.5 126.0 L 717.7 127.4 L 720.8 128.7 L 724.0 130.1 L 727.1 131.4 L 730.3 132.8 L 733.5 134.1 L 736.6 135.5 L 739.8 136.8 L 742.9 138.2 L 746.1 139.5 L 749.3 140.9 L 752.4 142.2 L 755.6 143.6 L 758.7 144.9 L 761.9 146.3 L 765.1 147.6 L 768.2 149.0 L 771.4 150.3 L 774.5 151.7 L 777.7 153.0 L 780.8 154.4 L 784.0 155.7 L 787.2 157.1 L 790.3 158.4 L 793.5 159.8 L 796.6 161.1 L 799.8 162.5 L 803.0 163.8 L 806.1 165.2 L 809.3 166.5 L 812.4 167.9 L 815.6 169.2 L 818.8 170.6 L 821.9 171.9 L 825.1 173.3 L 828.2 174.6 L 831.4 176.0 L 834.6 177.3 L 837.7 178.7 L 840.9 180.0 L 844.0 181.4 L 847.2 182.7 L 850.4 184.1 L 853.5 185.4 L 856.7 186.7 L 859.8 188.1 L 863.0 189.4 L 866.1 190.8 L 869.3 192.1 L 872.1 193.7 L 874.6 195.6 L 876.8 197.6 L 878.6 199.9 L 880.2 202.4 L 881.3 205.2 L 882.2 208.2 L 882.7 211.4 L 883.2 214.7 L 883.7 217.9 L 884.3 221.1 L 884.8 224.4 L 885.3 227.6 L 885.8 230.8 L 886.3 234.1 L 886.9 237.3 L 887.4 240.5 L 887.9 243.8 L 888.4 247.0 L 888.9 250.2 L 889.5 253.5 L 890.0 256.7 L 890.5 259.9 L 891.0 263.2 L 891.5 266.4 L 892.1 269.6 L 892.6 272.9 L 893.1 276.1 L 893.6 279.3 L 894.1 282.6 L 894.7 285.8 L 895.2 289.0 L 895.7 292.3 L 896.2 295.5 L 896.7 298.7 L 897.3 302.0 L 897.8 305.2 L 898.3 308.4 L 898.8 311.7 L 899.3 314.9 L 899.9 318.1 L 900.4 321.4 L 900.9 324.6 L 901.4 327.8 L 901.9 331.1 L 902.5 334.3 L 903.0 337.5 L 903.5 340.8 L 904.0 344.0 L 904.5 347.2 L 905.1 350.5 L 905.6 353.7 L 906.1 356.9 L 906.6 360.2 L 907.1 363.4 L 907.7 366.6 L 908.2 369.9 L 908.7 373.1 L 909.2 376.3 L 909.7 379.6 L 910.3 382.8 L 910.8 386.0 L 911.3 389.3 L 911.8 392.5 L 912.3 395.7 L 912.9 399.0 L 913.4 402.2 L 913.9 405.4 L 914.4 408.7 L 914.9 411.9 L 915.4 415.1 L 916.0 418.4 L 916.5 421.6 L 917.0 424.8 L 917.5 428.1 L 918.0 431.3 L 918.6 434.5 L 919.1 437.8 L 919.6 441.0 L 920.1 444.2 L 920.6 447.5 L 921.2 450.7 L 921.7 453.9 L 922.2 457.2 L 922.7 460.4 L 923.2 463.6 L 923.8 466.9 L 924.3 470.1 L 924.8 473.3 L 925.3 476.6 L 925.8 479.8 L 926.4 483.0 L 926.9 486.3 L 927.4 489.5 L 927.9 492.7 L 928.4 496.0 L 929.0 499.2 L 929.5 502.4 L 930.0 505.7 L 930.5 508.9 L 931.0 512.2 L 931.6 515.4 L 932.1 518.6 L 932.6 521.9 L 933.1 525.1 L 933.6 528.3 L 934.2 531.6 L 934.7 534.8 L 935.2 538.0 L 935.7 541.3 L 936.2 544.5 L 936.8 547.7 L 937.3 551.0 L 937.8 554.2 L 938.3 557.4 L 938.8 560.7 L 939.4 563.9 L 939.9 567.1 L 940.4 570.4 L 940.9 573.6 L 941.4 576.8 L 942.0 580.1 L 942.5 583.3 L 943.0 586.5 L 943.5 589.8 L 944.0 593.0 L 944.6 596.2 L 945.1 599.5 L 945.6 602.7 L 946.1 605.9 L 946.6 609.2 L 947.2 612.4 L 947.7 615.6 L 948.2 618.9 L 948.7 622.1 L 949.2 625.3 L 949.8 628.6 L 950.3 631.8 L 950.8 635.0 L 951.3 638.3 L 951.8 641.5 L 952.4 644.7 L 952.9 648.0 L 953.4 651.2 L 953.9 654.4 L 954.4 657.7 L 955.0 660.9 L 955.5 664.1 L 956.0 667.4 L 956.5 670.6 L 957.0 673.8 L 957.6 677.1 L 958.1 680.3 L 958.6 683.5 L 959.1 686.8 L 959.6 690.0 L 960.2 693.2 L 960.7 696.5 L 961.2 699.7 L 961.7 702.9 L 962.2 706.2 L 962.7 709.4 L 963.3 712.6 L 963.8 715.9 L 964.3 719.1 L 964.8 722.3 L 965.3 725.6 L 965.9 728.8 L 966.4 732.0 L 966.9 735.3 L 967.4 738.5 L 967.9 741.7 L 968.5 745.0 L 969.0 748.2 L 969.5 751.4 L 970.0 754.7 L 970.5 757.9 L 971.1 761.1 L 971.6 764.4 L 972.1 767.6 L 972.6 770.8 L 973.1 774.1 L 973.7 777.3 L 974.2 780.5 L 974.7 783.8 L 975.2 787.0 L 975.7 790.2 L 976.3 793.5 L 976.8 796.7 L 977.3 799.9 L 977.8 803.2 L 978.3 806.4 L 978.9 809.6 L 979.4 812.9 L 979.9 816.1 L 980.4 819.3 L 980.9 822.6 L 981.5 825.8 L 982.0 829.0 L 982.5 832.3 L 983.0 835.5 L 983.5 838.7 L 984.1 842.0 L 984.6 845.2 L 985.1 848.5 L 985.6 851.7 L 986.1 854.9 L 986.7 858.2 L 987.2 861.4 L 987.7 864.6 L 988.2 867.9 L 988.7 871.1 L 989.3 874.3 L 989.8 877.6 L 990.3 880.8 L 990.8 884.0 L 991.3 887.3 L 991.9 890.5 L 992.4 893.7 L 992.9 897.0 L 993.4 900.2 L 993.9 903.4 L 994.5 906.7 L 995.0 909.9 L 995.5 913.1 L 996.0 916.4 L 996.5 919.6 L 997.1 922.8 L 997.6 926.1 L 998.1 929.3 L 998.6 932.5 L 999.1 935.8 L 999.2 938.8 L 998.9 941.6 L 998.0 944.1 L 996.8 946.5 L 995.1 948.6 L 993.0 950.6 L 990.4 952.3 L 987.4 953.7 L 984.4 955.2 L 981.4 956.7 L 978.4 958.2 L 975.4 959.7 L 972.4 961.1 L 969.4 962.6 L 966.4 964.1 L 963.4 965.6 L 960.3 967.0 L 957.3 968.5 L 954.3 970.0 L 951.3 971.5 L 948.3 973.0 L 945.3 974.4 L 942.3 975.9 L 939.3 977.4 L 936.3 978.9 L 933.3 980.4 L 930.3 981.8 L 927.3 983.3 L 924.2 984.8 L 921.2 986.3 L 918.2 987.8 L 915.2 989.2 L 912.2 990.7 L 909.2 992.2 L 906.2 993.7 L 903.2 995.2 L 900.2 996.6 L 897.2 998.1 L 894.2 999.6 L 891.2 1001.1 L 888.1 1002.5 L 885.1 1004.0 L 882.1 1005.5 L 879.1 1007.0 L 876.1 1008.5 L 873.1 1009.9 L 870.1 1011.4 L 867.1 1012.9 L 864.1 1014.4 L 861.1 1015.9 L 858.1 1017.3 L 855.1 1018.8 L 852.0 1020.3 L 849.0 1021.8 L 846.0 1023.3 L 843.0 1024.7 L 840.0 1026.2 L 837.0 1027.7 L 834.0 1029.2 L 831.0 1030.7 L 828.0 1032.1 L 825.0 1033.6 L 822.0 1035.1 L 819.0 1036.6 L 815.9 1038.1 L 812.9 1039.5 L 809.9 1041.0 L 806.9 1042.5 L 803.9 1044.0 L 800.9 1045.4 L 797.9 1046.9 L 794.9 1048.4 L 791.9 1049.9 L 788.9 1051.4 L 785.9 1052.8 L 782.9 1054.3 L 779.8 1055.8 L 776.8 1057.3 L 773.8 1058.8 L 770.8 1060.2 L 767.8 1061.7 L 764.8 1063.2 L 761.8 1064.7 L 758.8 1066.2 L 755.8 1067.6 L 752.8 1069.1 L 749.8 1070.6 L 746.8 1072.1 L 743.7 1073.6 L 740.7 1075.0 L 737.7 1076.5 L 734.7 1078.0 L 731.7 1079.5 L 728.7 1081.0 L 725.7 1082.4 L 722.7 1083.9 L 719.7 1085.4 L 716.7 1086.9 L 713.7 1088.3 L 710.7 1089.8 L 707.6 1091.3 L 704.6 1092.8 L 701.6 1094.3 L 698.6 1095.7 L 695.6 1097.2 L 692.6 1098.7 L 689.6 1100.2 L 686.6 1101.7 L 683.6 1103.1 L 680.6 1104.6 L 677.6 1106.1 L 674.6 1107.6 L 671.5 1109.1 L 668.5 1110.5 L 665.5 1112.0 L 662.5 1113.5 L 659.5 1115.0 L 656.5 1116.5 L 653.5 1117.9 L 650.5 1119.4 L 647.5 1120.9 L 644.5 1122.4 L 641.5 1123.8 L 638.5 1125.3 L 635.4 1126.8 L 632.4 1128.3 L 629.4 1129.8 L 626.4 1131.2 L 623.4 1132.7 L 620.4 1134.2 L 617.4 1135.7 L 614.4 1137.2 L 611.4 1138.6 L 608.4 1140.1 L 605.4 1141.6 L 602.4 1143.1 L 599.3 1144.6 L 596.3 1146.0 L 593.3 1147.5 L 590.3 1149.0 L 587.3 1150.5 L 584.3 1152.0 L 581.3 1153.4 L 578.3 1154.9 L 575.3 1156.4 L 572.3 1157.9 L 569.3 1159.4 L 566.3 1160.8 L 563.2 1162.3 L 560.2 1163.8 L 557.2 1165.3 L 554.2 1166.7 L 551.2 1168.2 L 548.2 1169.7 L 545.2 1171.2 L 542.2 1172.7 L 539.2 1174.1 L 536.2 1175.6 L 533.2 1177.1 L 530.2 1178.6 L 527.1 1180.1 L 524.1 1181.5 L 521.1 1183.0 L 518.1 1184.5 L 515.1 1186.0 L 512.1 1187.5 L 509.1 1188.9 L 506.1 1190.4 L 503.1 1191.9 L 500.1 1193.4 L 497.1 1194.9 L 494.1 1196.3 L 491.0 1197.8 L 488.0 1199.3 L 485.0 1200.8 L 482.0 1202.3 L 479.0 1203.7 L 476.0 1205.2 L 473.0 1206.7 L 470.0 1208.2 L 467.0 1209.6 L 464.0 1211.1 L 461.0 1212.6 L 458.0 1214.1 L 454.9 1215.6 L 451.9 1217.0 L 448.9 1218.5 L 445.9 1220.0 L 442.9 1221.5 L 439.9 1223.0 L 436.9 1224.4 L 433.9 1225.9 L 430.9 1227.4 L 427.9 1228.9 L 424.9 1230.4 L 421.9 1231.8 L 418.8 1233.3 L 415.8 1234.8 L 412.8 1236.3 L 409.8 1237.8 L 406.8 1239.2 L 403.8 1240.7 L 400.8 1242.2 L 397.8 1243.7 L 394.8 1245.1 L 391.8 1246.6 L 388.8 1248.1 L 385.8 1249.6 L 382.5 1251.0 L 378.9 1252.3 L 375.0 1253.6 L 370.8 1254.9 L 366.4 1256.0 L 361.6 1257.1 L 356.6 1258.1 L 351.3 1259.1 L 346.4 1259.5 L 342.1 1259.5 L 338.2 1259.0 L 334.9 1258.0 L 332.0 1256.5 L 329.6 1254.5 L 327.8 1252.0 L 326.4 1249.0 L 325.0 1246.1 L 323.6 1243.1 L 322.2 1240.1 L 320.8 1237.2 L 319.4 1234.2 L 318.0 1231.2 L 316.6 1228.2 L 315.2 1225.3 L 313.8 1222.3 L 312.4 1219.3 L 311.0 1216.4 L 309.6 1213.4 L 308.2 1210.4 L 306.8 1207.4 L 305.4 1204.5 L 304.0 1201.5 L 302.6 1198.5 L 301.2 1195.5 L 299.8 1192.6 L 298.4 1189.6 L 297.0 1186.6 L 295.6 1183.7 L 294.2 1180.7 L 292.9 1177.7 L 291.5 1174.7 L 290.1 1171.8 L 288.7 1168.8 L 287.3 1165.8 L 285.9 1162.9 L 284.5 1159.9 L 283.1 1156.9 L 281.7 1153.9 L 280.3 1151.0 L 278.9 1148.0 L 277.5 1145.0 L 276.1 1142.1 L 274.7 1139.1 L 273.3 1136.1 L 271.9 1133.1 L 270.5 1130.2 L 269.1 1127.2 L 267.7 1124.2 L 266.3 1121.2 L 264.9 1118.3 L 263.5 1115.3 L 262.1 1112.3 L 260.7 1109.4 L 259.3 1106.4 L 257.9 1103.4 L 256.6 1100.4 L 255.2 1097.5 L 253.8 1094.5 L 252.4 1091.5 L 251.0 1088.6 L 249.6 1085.6 L 248.2 1082.6 L 246.8 1079.6 L 245.4 1076.7 L 244.0 1073.7 L 242.6 1070.7 L 241.2 1067.7 L 239.8 1064.8 L 238.4 1061.8 L 237.0 1058.8 L 235.6 1055.9 L 234.2 1052.9 L 232.8 1049.9 L 231.4 1046.9 L 230.0 1044.0 L 228.6 1041.0 L 227.2 1038.0 L 225.8 1035.1 L 224.4 1032.1 L 223.0 1029.1 L 221.7 1026.1 L 220.3 1023.2 L 218.9 1020.2 L 217.5 1017.2 L 216.1 1014.2 L 214.7 1011.3 L 213.3 1008.3 L 211.9 1005.3 L 210.5 1002.4 L 209.1 999.4 L 207.7 996.4 L 206.3 993.4 L 204.9 990.5 L 203.5 987.5 L 202.1 984.5 L 200.7 981.6 L 199.3 978.6 L 197.9 975.6 L 196.5 972.6 L 195.1 969.7 L 193.7 966.7 L 192.3 963.7 L 190.9 960.8 L 189.5 957.8 L 188.1 954.8 L 186.7 951.8 L 185.4 948.9 L 184.0 945.9 L 182.6 942.9 L 181.2 939.9 L 179.8 937.0 L 178.4 934.0 L 177.0 931.0 L 175.6 928.1 L 174.2 925.1 L 172.8 922.1 L 171.4 919.1 L 170.0 916.2 L 168.6 913.2 L 167.2 910.2 L 165.8 907.3 L 164.4 904.3 L 163.0 901.3 L 161.6 898.3 L 160.2 895.4 L 158.8 892.4 L 157.4 889.4 L 156.0 886.4 L 154.6 883.5 L 153.2 880.5 L 151.8 877.5 L 150.4 874.6 L 149.1 871.6 L 147.7 868.6 L 146.3 865.6 L 144.9 862.7 L 143.5 859.7 L 142.1 856.7 L 140.7 853.8 L 139.3 850.8 L 137.9 847.8 L 136.5 844.8 L 135.1 841.9 L 133.7 838.9 L 132.3 835.9 L 130.9 833.0 L 129.5 830.0 L 128.1 827.0 L 126.7 824.0 L 125.3 821.1 L 124.0 818.1 L 122.9 815.0 L 121.9 811.9 L 121.0 808.8 L 120.2 805.7 L 119.5 802.5 L 119.0 799.3 L 118.5 796.1 L 118.1 792.8 L 117.7 789.6 L 117.3 786.3 L 116.9 783.1 L 116.5 779.8 L 116.0 776.6 L 115.6 773.3 L 115.2 770.1 L 114.8 766.9 L 114.4 763.6 L 114.0 760.4 L 113.5 757.1 L 113.1 753.9 L 112.7 750.6 L 112.3 747.4 L 111.9 744.1 L 111.4 740.9 L 111.0 737.7 L 110.6 734.4 L 110.2 731.2 L 109.8 727.9 L 109.4 724.7 L 108.9 721.4 L 108.5 718.2 L 108.1 714.9 L 107.7 711.7 L 107.3 708.5 L 106.8 705.2 L 106.4 702.0 L 106.0 698.7 L 105.6 695.5 L 105.2 692.2 L 104.8 689.0 L 104.3 685.7 L 103.9 682.5 L 103.5 679.2 L 103.1 676.0 L 102.7 672.8 L 102.2 669.5 L 101.8 666.3 L 101.4 663.0 L 101.0 659.8 L 100.6 656.5 L 100.2 653.3 L 99.7 650.0 L 99.3 646.8 L 98.9 643.6 L 98.5 640.3 L 98.1 637.1 L 97.6 633.8 L 97.2 630.6 L 96.8 627.3 L 96.4 624.1 L 96.0 620.8 L 95.6 617.6 L 95.1 614.4 L 94.7 611.1 L 94.3 607.9 L 93.9 604.6 L 93.5 601.4 L 93.1 598.1 L 92.6 594.9 L 92.2 591.6 L 91.8 588.4 L 91.4 585.1 L 91.0 581.9 L 90.5 578.7 L 90.1 575.4 L 89.7 572.2 L 89.3 568.9 L 88.9 565.7 L 88.5 562.4 L 88.0 559.2 L 87.6 555.9 L 87.2 552.7 L 86.8 549.5 L 86.4 546.2 L 85.9 543.0 L 85.5 539.7 L 85.1 536.5 L 84.7 533.2 L 84.3 530.0 L 83.9 526.7 L 83.4 523.5 L 83.0 520.3 L 82.6 517.0 L 82.2 513.8 L 81.8 510.5 L 81.3 507.3 L 80.9 504.0 L 80.5 500.8 L 80.1 497.5 L 79.7 494.3 L 79.3 491.1 L 78.8 487.8 L 78.4 484.6 L 78.0 481.3 L 77.6 478.1 L 77.2 474.8 L 76.7 471.6 L 76.3 468.3 L 75.9 465.1 L 75.5 461.8 L 75.1 458.6 L 74.7 455.4 L 74.2 452.1 L 73.8 448.9 L 73.4 445.6 L 73.0 442.4 L 72.6 439.1 L 72.1 435.9 L 71.7 432.6 L 71.3 429.4 L 70.9 426.2 L 70.5 422.9 L 70.1 419.7 L 69.6 416.4 L 69.2 413.2 L 68.8 409.9 L 68.4 406.7 L 68.0 403.4 L 67.6 400.2 L 67.1 397.0 L 66.7 393.7 L 66.3 390.5 L 65.9 387.2 L 65.5 384.0 L 65.0 380.7 L 64.6 377.5 L 64.2 374.2 L 63.8 371.0 L 63.4 367.7 L 63.0 364.5 L 62.5 361.3 L 62.1 358.0 L 61.7 354.8 L 61.3 351.3 L 60.9 347.7 L 60.6 343.9 L 60.2 339.9 L 59.9 335.8 L 59.6 331.4 L 59.3 326.9 L 59.0 322.2 L 58.8 317.5 L 58.5 312.7 L 58.2 308.0 L 58.0 303.3 L 57.7 298.6 L 57.4 293.9 L 57.2 289.1 L 56.9 284.4 L 56.9 279.8 L 57.1 275.1 L 57.5 270.6 L 58.2 266.1 L 59.1 261.7 L 60.3 257.3 L 61.6 253.0Z" fill="url(#landg)" stroke="#5d4a28" stroke-width="2.6" stroke-linejoin="round"/>
<g fill="#6f5a33" opacity="0.22"><circle cx="131.4" cy="798.5" r="1.4"/><circle cx="130.4" cy="409.6" r="1.4"/><circle cx="109.1" cy="419.1" r="1.4"/><circle cx="116.6" cy="416.4" r="1.4"/><circle cx="118.3" cy="442.0" r="1.4"/><circle cx="130.4" cy="409.6" r="1.4"/><circle cx="109.1" cy="419.1" r="1.4"/><circle cx="116.6" cy="416.4" r="1.4"/><circle cx="118.3" cy="442.0" r="1.4"/><circle cx="133.9" cy="381.4" r="1.4"/><circle cx="96.9" cy="315.4" r="1.4"/><circle cx="109.3" cy="316.3" r="1.4"/><circle cx="136.5" cy="381.9" r="1.4"/><circle cx="74.1" cy="353.5" r="1.4"/><circle cx="120.3" cy="330.2" r="1.4"/><circle cx="104.2" cy="315.1" r="1.4"/><circle cx="109.3" cy="315.3" r="1.4"/><circle cx="77.1" cy="343.7" r="1.4"/><circle cx="121.1" cy="309.2" r="1.4"/><circle cx="105.8" cy="377.1" r="1.4"/><circle cx="133.9" cy="381.4" r="1.4"/><circle cx="96.9" cy="315.4" r="1.4"/><circle cx="109.3" cy="316.3" r="1.4"/><circle cx="136.5" cy="381.9" r="1.4"/><circle cx="74.1" cy="353.5" r="1.4"/><circle cx="120.3" cy="330.2" r="1.4"/><circle cx="104.2" cy="315.1" r="1.4"/><circle cx="109.3" cy="315.3" r="1.4"/><circle cx="77.1" cy="343.7" r="1.4"/><circle cx="121.1" cy="309.2" r="1.4"/><circle cx="105.8" cy="377.1" r="1.4"/><circle cx="83.3" cy="250.9" r="1.4"/><circle cx="83.9" cy="251.7" r="1.4"/><circle cx="86.2" cy="251.3" r="1.4"/><circle cx="82.4" cy="249.1" r="1.4"/><circle cx="86.9" cy="262.7" r="1.4"/><circle cx="70.0" cy="281.6" r="1.4"/><circle cx="76.4" cy="317.0" r="1.4"/><circle cx="127.4" cy="283.9" r="1.4"/><circle cx="83.3" cy="250.9" r="1.4"/><circle cx="83.9" cy="251.7" r="1.4"/><circle cx="86.2" cy="251.3" r="1.4"/><circle cx="82.4" cy="249.1" r="1.4"/><circle cx="86.9" cy="262.7" r="1.4"/><circle cx="70.0" cy="281.6" r="1.4"/><circle cx="76.4" cy="317.0" r="1.4"/><circle cx="127.4" cy="283.9" r="1.4"/><circle cx="93.3" cy="221.8" r="1.4"/><circle cx="101.8" cy="204.5" r="1.4"/><circle cx="103.1" cy="206.3" r="1.4"/><circle cx="100.4" cy="203.6" r="1.4"/><circle cx="220.8" cy="764.2" r="1.4"/><circle cx="155.6" cy="803.7" r="1.4"/><circle cx="208.8" cy="805.3" r="1.4"/><circle cx="178.5" cy="793.8" r="1.4"/><circle cx="175.9" cy="803.9" r="1.4"/><circle cx="162.6" cy="813.1" r="1.4"/><circle cx="159.0" cy="798.9" r="1.4"/><circle cx="220.7" cy="796.7" r="1.4"/><circle cx="221.1" cy="795.0" r="1.4"/><circle cx="154.4" cy="818.3" r="1.4"/><circle cx="147.2" cy="650.5" r="1.4"/><circle cx="150.2" cy="652.7" r="1.4"/><circle cx="195.0" cy="689.9" r="1.4"/><circle cx="179.4" cy="568.2" r="1.4"/><circle cx="218.4" cy="607.4" r="1.4"/><circle cx="171.1" cy="582.6" r="1.4"/><circle cx="211.6" cy="497.7" r="1.4"/><circle cx="205.3" cy="545.3" r="1.4"/><circle cx="151.8" cy="519.1" r="1.4"/><circle cx="211.6" cy="497.7" r="1.4"/><circle cx="205.3" cy="545.3" r="1.4"/><circle cx="151.8" cy="519.1" r="1.4"/><circle cx="149.3" cy="431.2" r="1.4"/><circle cx="175.2" cy="446.3" r="1.4"/><circle cx="144.7" cy="443.3" r="1.4"/><circle cx="149.3" cy="431.2" r="1.4"/><circle cx="175.2" cy="446.3" r="1.4"/><circle cx="144.7" cy="443.3" r="1.4"/><circle cx="141.2" cy="336.2" r="1.4"/><circle cx="178.5" cy="395.6" r="1.4"/><circle cx="149.6" cy="327.4" r="1.4"/><circle cx="231.3" cy="342.1" r="1.4"/><circle cx="223.5" cy="368.2" r="1.4"/><circle cx="179.4" cy="315.7" r="1.4"/><circle cx="212.0" cy="356.4" r="1.4"/><circle cx="204.4" cy="313.4" r="1.4"/><circle cx="157.2" cy="330.0" r="1.4"/><circle cx="220.6" cy="370.0" r="1.4"/><circle cx="141.2" cy="336.2" r="1.4"/><circle cx="178.5" cy="395.6" r="1.4"/><circle cx="149.6" cy="327.4" r="1.4"/><circle cx="231.3" cy="342.1" r="1.4"/><circle cx="223.5" cy="368.2" r="1.4"/><circle cx="179.4" cy="315.7" r="1.4"/><circle cx="212.0" cy="356.4" r="1.4"/><circle cx="204.4" cy="313.4" r="1.4"/><circle cx="157.2" cy="330.0" r="1.4"/><circle cx="220.6" cy="370.0" r="1.4"/><circle cx="194.5" cy="250.8" r="1.4"/><circle cx="207.9" cy="321.0" r="1.4"/><circle cx="150.6" cy="291.3" r="1.4"/><circle cx="221.0" cy="235.3" r="1.4"/><circle cx="218.6" cy="307.8" r="1.4"/><circle cx="213.5" cy="239.7" r="1.4"/><circle cx="194.5" cy="250.8" r="1.4"/><circle cx="207.9" cy="321.0" r="1.4"/><circle cx="150.6" cy="291.3" r="1.4"/><circle cx="221.0" cy="235.3" r="1.4"/><circle cx="218.6" cy="307.8" r="1.4"/><circle cx="213.5" cy="239.7" r="1.4"/><circle cx="146.3" cy="204.0" r="1.4"/><circle cx="206.0" cy="204.1" r="1.4"/><circle cx="297.5" cy="994.4" r="1.4"/><circle cx="285.1" cy="992.5" r="1.4"/><circle cx="284.3" cy="990.9" r="1.4"/><circle cx="294.0" cy="984.9" r="1.4"/><circle cx="232.9" cy="995.6" r="1.4"/><circle cx="302.0" cy="985.9" r="1.4"/><circle cx="282.0" cy="1004.8" r="1.4"/><circle cx="241.8" cy="1023.4" r="1.4"/><circle cx="289.4" cy="970.0" r="1.4"/><circle cx="266.7" cy="951.2" r="1.4"/><circle cx="246.5" cy="950.6" r="1.4"/><circle cx="262.5" cy="922.4" r="1.4"/><circle cx="214.7" cy="937.6" r="1.4"/><circle cx="264.0" cy="876.1" r="1.4"/><circle cx="238.0" cy="860.6" r="1.4"/><circle cx="269.3" cy="861.1" r="1.4"/><circle cx="234.9" cy="833.5" r="1.4"/><circle cx="266.3" cy="838.6" r="1.4"/><circle cx="271.2" cy="879.1" r="1.4"/><circle cx="257.8" cy="654.9" r="1.4"/><circle cx="261.0" cy="653.7" r="1.4"/><circle cx="271.5" cy="599.8" r="1.4"/><circle cx="270.9" cy="599.0" r="1.4"/><circle cx="306.2" cy="576.8" r="1.4"/><circle cx="307.8" cy="573.1" r="1.4"/><circle cx="316.4" cy="567.9" r="1.4"/><circle cx="270.0" cy="600.5" r="1.4"/><circle cx="285.2" cy="589.0" r="1.4"/><circle cx="267.3" cy="514.7" r="1.4"/><circle cx="228.7" cy="486.4" r="1.4"/><circle cx="263.1" cy="550.4" r="1.4"/><circle cx="254.6" cy="528.2" r="1.4"/><circle cx="270.1" cy="530.3" r="1.4"/><circle cx="249.7" cy="513.3" r="1.4"/><circle cx="273.2" cy="510.4" r="1.4"/><circle cx="248.8" cy="506.9" r="1.4"/><circle cx="277.0" cy="515.6" r="1.4"/><circle cx="302.4" cy="549.3" r="1.4"/><circle cx="273.8" cy="530.2" r="1.4"/><circle cx="267.3" cy="514.7" r="1.4"/><circle cx="228.7" cy="486.4" r="1.4"/><circle cx="263.1" cy="550.4" r="1.4"/><circle cx="254.6" cy="528.2" r="1.4"/><circle cx="270.1" cy="530.3" r="1.4"/><circle cx="249.7" cy="513.3" r="1.4"/><circle cx="273.2" cy="510.4" r="1.4"/><circle cx="248.8" cy="506.9" r="1.4"/><circle cx="277.0" cy="515.6" r="1.4"/><circle cx="302.4" cy="549.3" r="1.4"/><circle cx="273.8" cy="530.2" r="1.4"/><circle cx="263.8" cy="394.7" r="1.4"/><circle cx="278.2" cy="478.4" r="1.4"/><circle cx="229.9" cy="472.9" r="1.4"/><circle cx="248.0" cy="444.4" r="1.4"/><circle cx="223.0" cy="412.1" r="1.4"/><circle cx="228.7" cy="442.5" r="1.4"/><circle cx="228.4" cy="431.9" r="1.4"/><circle cx="228.2" cy="420.2" r="1.4"/><circle cx="225.9" cy="428.5" r="1.4"/><circle cx="237.9" cy="432.9" r="1.4"/><circle cx="216.9" cy="398.3" r="1.4"/><circle cx="239.3" cy="379.8" r="1.4"/><circle cx="263.8" cy="394.7" r="1.4"/><circle cx="278.2" cy="478.4" r="1.4"/><circle cx="229.9" cy="472.9" r="1.4"/><circle cx="248.0" cy="444.4" r="1.4"/><circle cx="223.0" cy="412.1" r="1.4"/><circle cx="228.7" cy="442.5" r="1.4"/><circle cx="228.4" cy="431.9" r="1.4"/><circle cx="228.2" cy="420.2" r="1.4"/><circle cx="225.9" cy="428.5" r="1.4"/><circle cx="237.9" cy="432.9" r="1.4"/><circle cx="216.9" cy="398.3" r="1.4"/><circle cx="239.3" cy="379.8" r="1.4"/><circle cx="284.5" cy="329.0" r="1.4"/><circle cx="288.3" cy="317.8" r="1.4"/><circle cx="283.3" cy="361.8" r="1.4"/><circle cx="305.1" cy="381.7" r="1.4"/><circle cx="284.5" cy="329.0" r="1.4"/><circle cx="288.3" cy="317.8" r="1.4"/><circle cx="283.3" cy="361.8" r="1.4"/><circle cx="305.1" cy="381.7" r="1.4"/><circle cx="234.9" cy="296.6" r="1.4"/><circle cx="279.7" cy="285.1" r="1.4"/><circle cx="250.5" cy="282.3" r="1.4"/><circle cx="232.4" cy="302.4" r="1.4"/><circle cx="233.0" cy="297.4" r="1.4"/><circle cx="258.5" cy="260.7" r="1.4"/><circle cx="231.4" cy="263.8" r="1.4"/><circle cx="273.7" cy="238.6" r="1.4"/><circle cx="238.1" cy="257.1" r="1.4"/><circle cx="223.5" cy="232.5" r="1.4"/><circle cx="241.5" cy="259.5" r="1.4"/><circle cx="269.8" cy="257.7" r="1.4"/><circle cx="283.7" cy="292.3" r="1.4"/><circle cx="270.2" cy="236.7" r="1.4"/><circle cx="273.0" cy="240.0" r="1.4"/><circle cx="256.4" cy="251.9" r="1.4"/><circle cx="241.7" cy="302.8" r="1.4"/><circle cx="234.9" cy="296.6" r="1.4"/><circle cx="279.7" cy="285.1" r="1.4"/><circle cx="250.5" cy="282.3" r="1.4"/><circle cx="232.4" cy="302.4" r="1.4"/><circle cx="233.0" cy="297.4" r="1.4"/><circle cx="258.5" cy="260.7" r="1.4"/><circle cx="231.4" cy="263.8" r="1.4"/><circle cx="273.7" cy="238.6" r="1.4"/><circle cx="238.1" cy="257.1" r="1.4"/><circle cx="223.5" cy="232.5" r="1.4"/><circle cx="241.5" cy="259.5" r="1.4"/><circle cx="269.8" cy="257.7" r="1.4"/><circle cx="283.7" cy="292.3" r="1.4"/><circle cx="270.2" cy="236.7" r="1.4"/><circle cx="273.0" cy="240.0" r="1.4"/><circle cx="256.4" cy="251.9" r="1.4"/><circle cx="241.7" cy="302.8" r="1.4"/><circle cx="245.0" cy="221.5" r="1.4"/><circle cx="254.9" cy="208.4" r="1.4"/><circle cx="333.5" cy="1228.7" r="1.4"/><circle cx="374.1" cy="1221.4" r="1.4"/><circle cx="342.1" cy="1169.8" r="1.4"/><circle cx="348.5" cy="1223.8" r="1.4"/><circle cx="359.0" cy="1113.0" r="1.4"/><circle cx="371.7" cy="992.4" r="1.4"/><circle cx="300.1" cy="974.4" r="1.4"/><circle cx="348.3" cy="965.1" r="1.4"/><circle cx="365.1" cy="914.5" r="1.4"/><circle cx="337.9" cy="949.9" r="1.4"/><circle cx="376.5" cy="873.4" r="1.4"/><circle cx="314.2" cy="948.1" r="1.4"/><circle cx="324.9" cy="920.3" r="1.4"/><circle cx="353.2" cy="823.6" r="1.4"/><circle cx="375.8" cy="839.6" r="1.4"/><circle cx="376.4" cy="837.6" r="1.4"/><circle cx="380.8" cy="835.2" r="1.4"/><circle cx="313.8" cy="874.2" r="1.4"/><circle cx="313.7" cy="882.1" r="1.4"/><circle cx="384.6" cy="782.4" r="1.4"/><circle cx="325.7" cy="795.3" r="1.4"/><circle cx="382.6" cy="726.0" r="1.4"/><circle cx="384.0" cy="777.2" r="1.4"/><circle cx="322.3" cy="762.1" r="1.4"/><circle cx="310.0" cy="770.0" r="1.4"/><circle cx="312.7" cy="770.3" r="1.4"/><circle cx="323.7" cy="770.4" r="1.4"/><circle cx="336.6" cy="765.6" r="1.4"/><circle cx="328.0" cy="765.4" r="1.4"/><circle cx="355.1" cy="743.1" r="1.4"/><circle cx="362.5" cy="745.1" r="1.4"/><circle cx="328.9" cy="755.8" r="1.4"/><circle cx="345.8" cy="683.3" r="1.4"/><circle cx="328.5" cy="639.7" r="1.4"/><circle cx="357.0" cy="660.0" r="1.4"/><circle cx="357.8" cy="703.4" r="1.4"/><circle cx="363.1" cy="679.4" r="1.4"/><circle cx="363.5" cy="608.0" r="1.4"/><circle cx="405.4" cy="559.9" r="1.4"/><circle cx="333.6" cy="579.1" r="1.4"/><circle cx="327.3" cy="575.4" r="1.4"/><circle cx="389.2" cy="573.1" r="1.4"/><circle cx="306.3" cy="590.1" r="1.4"/><circle cx="323.1" cy="612.1" r="1.4"/><circle cx="379.0" cy="543.3" r="1.4"/><circle cx="372.4" cy="497.9" r="1.4"/><circle cx="373.6" cy="495.0" r="1.4"/><circle cx="358.0" cy="509.2" r="1.4"/><circle cx="330.8" cy="546.1" r="1.4"/><circle cx="373.4" cy="496.1" r="1.4"/><circle cx="313.2" cy="545.4" r="1.4"/><circle cx="343.4" cy="520.2" r="1.4"/><circle cx="341.2" cy="505.4" r="1.4"/><circle cx="355.2" cy="509.2" r="1.4"/><circle cx="357.9" cy="482.7" r="1.4"/><circle cx="367.4" cy="486.5" r="1.4"/><circle cx="362.6" cy="503.2" r="1.4"/><circle cx="362.4" cy="517.2" r="1.4"/><circle cx="387.2" cy="518.6" r="1.4"/><circle cx="372.2" cy="536.3" r="1.4"/><circle cx="367.4" cy="545.9" r="1.4"/><circle cx="374.2" cy="543.3" r="1.4"/><circle cx="383.1" cy="544.6" r="1.4"/><circle cx="369.9" cy="489.9" r="1.4"/><circle cx="367.0" cy="507.4" r="1.4"/><circle cx="357.3" cy="495.5" r="1.4"/><circle cx="369.5" cy="541.5" r="1.4"/><circle cx="388.2" cy="525.3" r="1.4"/><circle cx="355.4" cy="486.1" r="1.4"/><circle cx="357.9" cy="514.7" r="1.4"/><circle cx="387.6" cy="497.3" r="1.4"/><circle cx="358.4" cy="513.6" r="1.4"/><circle cx="357.3" cy="517.8" r="1.4"/><circle cx="375.3" cy="495.1" r="1.4"/><circle cx="369.0" cy="505.7" r="1.4"/><circle cx="343.2" cy="503.6" r="1.4"/><circle cx="372.3" cy="491.3" r="1.4"/><circle cx="376.3" cy="508.0" r="1.4"/><circle cx="379.4" cy="534.5" r="1.4"/><circle cx="332.9" cy="561.9" r="1.4"/><circle cx="379.0" cy="543.3" r="1.4"/><circle cx="372.4" cy="497.9" r="1.4"/><circle cx="373.6" cy="495.0" r="1.4"/><circle cx="358.0" cy="509.2" r="1.4"/><circle cx="330.8" cy="546.1" r="1.4"/><circle cx="373.4" cy="496.1" r="1.4"/><circle cx="313.2" cy="545.4" r="1.4"/><circle cx="343.4" cy="520.2" r="1.4"/><circle cx="341.2" cy="505.4" r="1.4"/><circle cx="355.2" cy="509.2" r="1.4"/><circle cx="357.9" cy="482.7" r="1.4"/><circle cx="367.4" cy="486.5" r="1.4"/><circle cx="362.6" cy="503.2" r="1.4"/><circle cx="362.4" cy="517.2" r="1.4"/><circle cx="387.2" cy="518.6" r="1.4"/><circle cx="372.2" cy="536.3" r="1.4"/><circle cx="367.4" cy="545.9" r="1.4"/><circle cx="374.2" cy="543.3" r="1.4"/><circle cx="383.1" cy="544.6" r="1.4"/><circle cx="369.9" cy="489.9" r="1.4"/><circle cx="367.0" cy="507.4" r="1.4"/><circle cx="357.3" cy="495.5" r="1.4"/><circle cx="369.5" cy="541.5" r="1.4"/><circle cx="388.2" cy="525.3" r="1.4"/><circle cx="355.4" cy="486.1" r="1.4"/><circle cx="357.9" cy="514.7" r="1.4"/><circle cx="387.6" cy="497.3" r="1.4"/><circle cx="358.4" cy="513.6" r="1.4"/><circle cx="357.3" cy="517.8" r="1.4"/><circle cx="375.3" cy="495.1" r="1.4"/><circle cx="369.0" cy="505.7" r="1.4"/><circle cx="343.2" cy="503.6" r="1.4"/><circle cx="372.3" cy="491.3" r="1.4"/><circle cx="376.3" cy="508.0" r="1.4"/><circle cx="379.4" cy="534.5" r="1.4"/><circle cx="332.9" cy="561.9" r="1.4"/><circle cx="351.7" cy="403.3" r="1.4"/><circle cx="321.0" cy="471.2" r="1.4"/><circle cx="317.5" cy="463.6" r="1.4"/><circle cx="324.5" cy="479.9" r="1.4"/><circle cx="316.8" cy="466.6" r="1.4"/><circle cx="330.9" cy="471.5" r="1.4"/><circle cx="327.2" cy="467.8" r="1.4"/><circle cx="330.7" cy="460.1" r="1.4"/><circle cx="339.7" cy="458.2" r="1.4"/><circle cx="333.8" cy="485.6" r="1.4"/><circle cx="337.8" cy="479.6" r="1.4"/><circle cx="351.7" cy="403.3" r="1.4"/><circle cx="321.0" cy="471.2" r="1.4"/><circle cx="317.5" cy="463.6" r="1.4"/><circle cx="324.5" cy="479.9" r="1.4"/><circle cx="316.8" cy="466.6" r="1.4"/><circle cx="330.9" cy="471.5" r="1.4"/><circle cx="327.2" cy="467.8" r="1.4"/><circle cx="330.7" cy="460.1" r="1.4"/><circle cx="339.7" cy="458.2" r="1.4"/><circle cx="333.8" cy="485.6" r="1.4"/><circle cx="337.8" cy="479.6" r="1.4"/><circle cx="341.5" cy="372.1" r="1.4"/><circle cx="342.3" cy="378.4" r="1.4"/><circle cx="358.6" cy="327.0" r="1.4"/><circle cx="376.2" cy="315.1" r="1.4"/><circle cx="341.5" cy="372.1" r="1.4"/><circle cx="342.3" cy="378.4" r="1.4"/><circle cx="358.6" cy="327.0" r="1.4"/><circle cx="376.2" cy="315.1" r="1.4"/><circle cx="321.3" cy="278.8" r="1.4"/><circle cx="328.6" cy="237.1" r="1.4"/><circle cx="340.2" cy="299.6" r="1.4"/><circle cx="335.5" cy="263.8" r="1.4"/><circle cx="372.3" cy="239.0" r="1.4"/><circle cx="373.3" cy="233.7" r="1.4"/><circle cx="346.8" cy="253.9" r="1.4"/><circle cx="359.7" cy="287.8" r="1.4"/><circle cx="321.3" cy="278.8" r="1.4"/><circle cx="328.6" cy="237.1" r="1.4"/><circle cx="340.2" cy="299.6" r="1.4"/><circle cx="335.5" cy="263.8" r="1.4"/><circle cx="372.3" cy="239.0" r="1.4"/><circle cx="373.3" cy="233.7" r="1.4"/><circle cx="346.8" cy="253.9" r="1.4"/><circle cx="359.7" cy="287.8" r="1.4"/><circle cx="419.8" cy="1092.0" r="1.4"/><circle cx="467.7" cy="1078.1" r="1.4"/><circle cx="400.4" cy="1059.6" r="1.4"/><circle cx="436.3" cy="1127.4" r="1.4"/><circle cx="437.8" cy="1128.9" r="1.4"/><circle cx="410.7" cy="1080.4" r="1.4"/><circle cx="433.4" cy="1069.2" r="1.4"/><circle cx="440.1" cy="1036.1" r="1.4"/><circle cx="423.0" cy="1008.6" r="1.4"/><circle cx="411.6" cy="1035.2" r="1.4"/><circle cx="398.6" cy="1012.3" r="1.4"/><circle cx="402.2" cy="1013.2" r="1.4"/><circle cx="396.0" cy="1011.4" r="1.4"/><circle cx="436.4" cy="918.9" r="1.4"/><circle cx="475.2" cy="950.6" r="1.4"/><circle cx="411.2" cy="925.9" r="1.4"/><circle cx="358.8" cy="800.7" r="1.4"/><circle cx="457.4" cy="850.9" r="1.4"/><circle cx="384.3" cy="847.6" r="1.4"/><circle cx="403.2" cy="788.7" r="1.4"/><circle cx="431.8" cy="788.8" r="1.4"/><circle cx="392.0" cy="765.5" r="1.4"/><circle cx="427.6" cy="782.7" r="1.4"/><circle cx="430.2" cy="770.4" r="1.4"/><circle cx="433.5" cy="685.8" r="1.4"/><circle cx="445.0" cy="652.9" r="1.4"/><circle cx="411.5" cy="689.1" r="1.4"/><circle cx="455.4" cy="722.5" r="1.4"/><circle cx="438.7" cy="625.6" r="1.4"/><circle cx="441.6" cy="628.3" r="1.4"/><circle cx="401.8" cy="586.9" r="1.4"/><circle cx="445.8" cy="627.0" r="1.4"/><circle cx="417.0" cy="565.8" r="1.4"/><circle cx="398.4" cy="614.1" r="1.4"/><circle cx="420.4" cy="474.0" r="1.4"/><circle cx="394.6" cy="493.4" r="1.4"/><circle cx="436.8" cy="506.0" r="1.4"/><circle cx="438.9" cy="503.5" r="1.4"/><circle cx="389.3" cy="504.1" r="1.4"/><circle cx="448.8" cy="509.8" r="1.4"/><circle cx="399.6" cy="551.5" r="1.4"/><circle cx="396.1" cy="552.3" r="1.4"/><circle cx="425.0" cy="517.4" r="1.4"/><circle cx="414.1" cy="535.3" r="1.4"/><circle cx="408.0" cy="538.1" r="1.4"/><circle cx="427.9" cy="532.4" r="1.4"/><circle cx="422.6" cy="470.8" r="1.4"/><circle cx="471.0" cy="475.0" r="1.4"/><circle cx="422.0" cy="472.1" r="1.4"/><circle cx="427.1" cy="403.0" r="1.4"/><circle cx="423.2" cy="390.1" r="1.4"/><circle cx="440.2" cy="327.7" r="1.4"/><circle cx="428.5" cy="381.7" r="1.4"/><circle cx="412.4" cy="352.5" r="1.4"/><circle cx="431.7" cy="329.6" r="1.4"/><circle cx="482.3" cy="349.0" r="1.4"/><circle cx="440.6" cy="338.5" r="1.4"/><circle cx="425.7" cy="349.1" r="1.4"/><circle cx="456.1" cy="321.0" r="1.4"/><circle cx="457.2" cy="343.5" r="1.4"/><circle cx="516.3" cy="1061.6" r="1.4"/><circle cx="507.1" cy="954.6" r="1.4"/><circle cx="481.2" cy="946.4" r="1.4"/><circle cx="552.4" cy="1004.4" r="1.4"/><circle cx="505.1" cy="966.4" r="1.4"/><circle cx="474.6" cy="1005.2" r="1.4"/><circle cx="489.9" cy="981.9" r="1.4"/><circle cx="543.7" cy="1032.0" r="1.4"/><circle cx="549.8" cy="897.4" r="1.4"/><circle cx="535.7" cy="933.6" r="1.4"/><circle cx="552.2" cy="660.8" r="1.4"/><circle cx="526.0" cy="670.5" r="1.4"/><circle cx="481.5" cy="618.0" r="1.4"/><circle cx="509.8" cy="564.6" r="1.4"/><circle cx="520.8" cy="610.9" r="1.4"/><circle cx="532.4" cy="625.5" r="1.4"/><circle cx="524.1" cy="637.4" r="1.4"/><circle cx="521.1" cy="624.0" r="1.4"/><circle cx="518.8" cy="625.2" r="1.4"/><circle cx="520.0" cy="623.5" r="1.4"/><circle cx="539.5" cy="635.5" r="1.4"/><circle cx="538.1" cy="633.7" r="1.4"/><circle cx="529.9" cy="621.1" r="1.4"/><circle cx="533.3" cy="631.3" r="1.4"/><circle cx="525.1" cy="623.1" r="1.4"/><circle cx="520.3" cy="617.4" r="1.4"/><circle cx="518.2" cy="625.2" r="1.4"/><circle cx="520.4" cy="621.9" r="1.4"/><circle cx="529.1" cy="619.6" r="1.4"/><circle cx="518.6" cy="623.8" r="1.4"/><circle cx="524.5" cy="617.3" r="1.4"/><circle cx="540.9" cy="627.4" r="1.4"/><circle cx="534.9" cy="631.4" r="1.4"/><circle cx="543.9" cy="640.7" r="1.4"/><circle cx="483.2" cy="618.4" r="1.4"/><circle cx="535.5" cy="629.5" r="1.4"/><circle cx="528.3" cy="634.6" r="1.4"/><circle cx="540.9" cy="619.9" r="1.4"/><circle cx="557.7" cy="497.3" r="1.4"/><circle cx="495.3" cy="480.2" r="1.4"/><circle cx="496.9" cy="478.8" r="1.4"/><circle cx="471.3" cy="478.6" r="1.4"/><circle cx="529.4" cy="502.1" r="1.4"/><circle cx="541.4" cy="488.4" r="1.4"/><circle cx="530.1" cy="487.4" r="1.4"/><circle cx="544.6" cy="490.6" r="1.4"/><circle cx="538.4" cy="483.2" r="1.4"/><circle cx="478.7" cy="547.8" r="1.4"/><circle cx="528.7" cy="501.0" r="1.4"/><circle cx="537.5" cy="502.5" r="1.4"/><circle cx="515.9" cy="396.4" r="1.4"/><circle cx="526.3" cy="422.8" r="1.4"/><circle cx="530.9" cy="403.9" r="1.4"/><circle cx="530.8" cy="409.0" r="1.4"/><circle cx="532.2" cy="449.1" r="1.4"/><circle cx="506.2" cy="396.8" r="1.4"/><circle cx="477.4" cy="370.5" r="1.4"/><circle cx="527.8" cy="324.1" r="1.4"/><circle cx="534.3" cy="338.0" r="1.4"/><circle cx="542.5" cy="332.2" r="1.4"/><circle cx="548.6" cy="338.5" r="1.4"/><circle cx="549.4" cy="349.7" r="1.4"/><circle cx="539.1" cy="327.3" r="1.4"/><circle cx="532.6" cy="324.9" r="1.4"/><circle cx="484.8" cy="311.5" r="1.4"/><circle cx="471.2" cy="316.7" r="1.4"/><circle cx="479.4" cy="318.2" r="1.4"/><circle cx="495.0" cy="329.5" r="1.4"/><circle cx="528.5" cy="311.0" r="1.4"/><circle cx="536.3" cy="304.3" r="1.4"/><circle cx="473.5" cy="308.6" r="1.4"/><circle cx="535.5" cy="209.1" r="1.4"/><circle cx="517.6" cy="72.4" r="1.4"/><circle cx="473.3" cy="136.3" r="1.4"/><circle cx="518.6" cy="71.1" r="1.4"/><circle cx="518.2" cy="70.0" r="1.4"/><circle cx="517.5" cy="71.1" r="1.4"/><circle cx="518.4" cy="72.4" r="1.4"/><circle cx="573.2" cy="1007.9" r="1.4"/><circle cx="600.1" cy="1056.3" r="1.4"/><circle cx="553.5" cy="745.8" r="1.4"/><circle cx="586.3" cy="732.1" r="1.4"/><circle cx="586.2" cy="620.8" r="1.4"/><circle cx="586.1" cy="619.8" r="1.4"/><circle cx="564.6" cy="559.6" r="1.4"/><circle cx="575.6" cy="563.9" r="1.4"/><circle cx="602.0" cy="623.9" r="1.4"/><circle cx="560.4" cy="626.7" r="1.4"/><circle cx="609.2" cy="613.6" r="1.4"/><circle cx="562.7" cy="493.1" r="1.4"/><circle cx="594.6" cy="554.7" r="1.4"/><circle cx="617.3" cy="507.1" r="1.4"/><circle cx="612.0" cy="498.4" r="1.4"/><circle cx="607.9" cy="481.4" r="1.4"/><circle cx="597.2" cy="546.1" r="1.4"/><circle cx="580.8" cy="518.4" r="1.4"/><circle cx="582.2" cy="518.0" r="1.4"/><circle cx="591.1" cy="537.3" r="1.4"/><circle cx="571.8" cy="515.6" r="1.4"/><circle cx="581.0" cy="519.5" r="1.4"/><circle cx="623.1" cy="509.0" r="1.4"/><circle cx="565.4" cy="529.9" r="1.4"/><circle cx="569.1" cy="519.4" r="1.4"/><circle cx="588.5" cy="502.4" r="1.4"/><circle cx="619.1" cy="489.0" r="1.4"/><circle cx="566.1" cy="529.5" r="1.4"/><circle cx="596.9" cy="557.5" r="1.4"/><circle cx="621.0" cy="476.0" r="1.4"/><circle cx="569.1" cy="402.9" r="1.4"/><circle cx="591.0" cy="455.1" r="1.4"/><circle cx="572.2" cy="453.3" r="1.4"/><circle cx="561.5" cy="412.9" r="1.4"/><circle cx="635.4" cy="320.0" r="1.4"/><circle cx="603.3" cy="352.1" r="1.4"/><circle cx="576.3" cy="333.7" r="1.4"/><circle cx="573.3" cy="341.1" r="1.4"/><circle cx="572.8" cy="309.2" r="1.4"/><circle cx="570.0" cy="306.1" r="1.4"/><circle cx="578.9" cy="298.9" r="1.4"/><circle cx="586.5" cy="334.7" r="1.4"/><circle cx="608.7" cy="328.5" r="1.4"/><circle cx="599.7" cy="321.9" r="1.4"/><circle cx="599.0" cy="321.7" r="1.4"/><circle cx="618.1" cy="278.1" r="1.4"/><circle cx="646.1" cy="265.5" r="1.4"/><circle cx="715.8" cy="777.5" r="1.4"/><circle cx="664.7" cy="761.1" r="1.4"/><circle cx="707.8" cy="715.5" r="1.4"/><circle cx="636.6" cy="515.1" r="1.4"/><circle cx="634.5" cy="501.7" r="1.4"/><circle cx="674.4" cy="520.9" r="1.4"/><circle cx="651.7" cy="488.7" r="1.4"/><circle cx="643.6" cy="505.3" r="1.4"/><circle cx="680.7" cy="455.9" r="1.4"/><circle cx="652.0" cy="444.5" r="1.4"/><circle cx="676.8" cy="419.3" r="1.4"/><circle cx="695.2" cy="379.8" r="1.4"/><circle cx="641.6" cy="392.9" r="1.4"/><circle cx="706.1" cy="305.3" r="1.4"/><circle cx="706.9" cy="305.3" r="1.4"/><circle cx="659.1" cy="244.9" r="1.4"/><circle cx="670.1" cy="273.5" r="1.4"/><circle cx="678.5" cy="227.3" r="1.4"/><circle cx="677.6" cy="226.1" r="1.4"/><circle cx="679.3" cy="226.8" r="1.4"/><circle cx="782.8" cy="824.7" r="1.4"/><circle cx="797.1" cy="769.0" r="1.4"/><circle cx="789.5" cy="778.7" r="1.4"/><circle cx="731.2" cy="804.8" r="1.4"/><circle cx="879.6" cy="885.6" r="1.4"/><circle cx="855.3" cy="947.0" r="1.4"/><circle cx="868.2" cy="877.0" r="1.4"/><circle cx="826.9" cy="877.9" r="1.4"/><circle cx="813.4" cy="780.0" r="1.4"/><circle cx="814.1" cy="773.2" r="1.4"/><circle cx="802.5" cy="756.9" r="1.4"/><circle cx="841.8" cy="215.6" r="1.4"/><circle cx="855.2" cy="213.9" r="1.4"/><circle cx="928.3" cy="903.9" r="1.4"/><circle cx="945.3" cy="828.6" r="1.4"/></g>
<g fill="#e3a000" stroke="#7a5b00" stroke-width="0.5" opacity="0.6"><circle cx="178.5" cy="748.5" r="2.3"/><circle cx="149.5" cy="652.2" r="2.3"/><circle cx="283.8" cy="838.4" r="2.3"/><circle cx="259.4" cy="654.3" r="2.3"/><circle cx="248.1" cy="554.7" r="2.3"/><circle cx="323.5" cy="744.4" r="2.3"/><circle cx="358.1" cy="617.1" r="2.3"/><circle cx="335.2" cy="537.9" r="2.3"/><circle cx="372.3" cy="492.7" r="2.3"/><circle cx="412.6" cy="661.8" r="2.3"/><circle cx="439.1" cy="627.9" r="2.3"/><circle cx="411.4" cy="505.0" r="2.3"/><circle cx="419.5" cy="516.9" r="2.3"/><circle cx="250.1" cy="963.5" r="2.3"/><circle cx="353.8" cy="1224.5" r="2.3"/><circle cx="360.6" cy="757.6" r="2.3"/><circle cx="441.3" cy="1128.2" r="2.3"/><circle cx="397.7" cy="945.5" r="2.3"/><circle cx="404.6" cy="944.6" r="2.3"/><circle cx="470.4" cy="630.7" r="2.3"/><circle cx="542.3" cy="963.1" r="2.3"/><circle cx="593.5" cy="998.5" r="2.3"/><circle cx="632.4" cy="672.5" r="2.3"/><circle cx="714.5" cy="667.7" r="2.3"/><circle cx="701.6" cy="826.9" r="2.3"/><circle cx="738.7" cy="582.5" r="2.3"/><circle cx="924.2" cy="835.0" r="2.3"/><circle cx="808.6" cy="778.5" r="2.3"/><circle cx="940.7" cy="900.0" r="2.3"/><circle cx="970.0" cy="928.4" r="2.3"/><circle cx="133.9" cy="423.2" r="2.3"/><circle cx="80.0" cy="395.1" r="2.3"/><circle cx="82.8" cy="370.7" r="2.3"/><circle cx="174.8" cy="411.0" r="2.3"/><circle cx="207.0" cy="390.2" r="2.3"/><circle cx="178.5" cy="268.5" r="2.3"/><circle cx="233.4" cy="302.4" r="2.3"/><circle cx="348.1" cy="454.6" r="2.3"/><circle cx="312.0" cy="255.4" r="2.3"/><circle cx="422.5" cy="472.9" r="2.3"/><circle cx="400.6" cy="301.6" r="2.3"/><circle cx="506.7" cy="600.7" r="2.3"/><circle cx="529.0" cy="615.1" r="2.3"/><circle cx="539.1" cy="636.3" r="2.3"/><circle cx="494.8" cy="479.3" r="2.3"/><circle cx="551.1" cy="518.9" r="2.3"/><circle cx="528.9" cy="303.2" r="2.3"/><circle cx="515.6" cy="170.0" r="2.3"/><circle cx="526.5" cy="204.5" r="2.3"/><circle cx="587.8" cy="619.3" r="2.3"/><circle cx="612.8" cy="512.3" r="2.3"/><circle cx="574.4" cy="401.9" r="2.3"/><circle cx="556.6" cy="213.0" r="2.3"/><circle cx="582.2" cy="150.3" r="2.3"/><circle cx="671.0" cy="488.3" r="2.3"/><circle cx="650.7" cy="419.4" r="2.3"/><circle cx="684.6" cy="314.5" r="2.3"/><circle cx="747.3" cy="185.5" r="2.3"/><circle cx="659.9" cy="194.5" r="2.3"/></g>
<g><g transform="translate(277.0,573.1)"><circle r="6.5" fill="#7a3b2e" stroke="#3d2418" stroke-width="1.4"/><circle r="2.3" fill="#efe2c4"/></g><g transform="translate(234.9,296.6)"><circle r="6.5" fill="#7a3b2e" stroke="#3d2418" stroke-width="1.4"/><circle r="2.3" fill="#efe2c4"/></g><g transform="translate(179.0,313.4)"><circle r="6.5" fill="#7a3b2e" stroke="#3d2418" stroke-width="1.4"/><circle r="2.3" fill="#efe2c4"/></g><g transform="translate(373.4,496.0)"><circle r="6.5" fill="#7a3b2e" stroke="#3d2418" stroke-width="1.4"/><circle r="2.3" fill="#efe2c4"/></g><g transform="translate(358.9,1006.4)"><circle r="6.5" fill="#7a3b2e" stroke="#3d2418" stroke-width="1.4"/><circle r="2.3" fill="#efe2c4"/></g><g transform="translate(397.7,922.4)"><circle r="6.5" fill="#7a3b2e" stroke="#3d2418" stroke-width="1.4"/><circle r="2.3" fill="#efe2c4"/></g><g transform="translate(371.1,511.7)"><circle r="6.5" fill="#7a3b2e" stroke="#3d2418" stroke-width="1.4"/><circle r="2.3" fill="#efe2c4"/></g><g transform="translate(532.2,470.8)"><circle r="6.5" fill="#7a3b2e" stroke="#3d2418" stroke-width="1.4"/><circle r="2.3" fill="#efe2c4"/></g><g transform="translate(756.9,900.6)"><circle r="6.5" fill="#7a3b2e" stroke="#3d2418" stroke-width="1.4"/><circle r="2.3" fill="#efe2c4"/></g><g transform="translate(518.4,72.4)"><circle r="6.5" fill="#7a3b2e" stroke="#3d2418" stroke-width="1.4"/><circle r="2.3" fill="#efe2c4"/></g><g transform="translate(711.8,759.0)"><circle r="6.5" fill="#7a3b2e" stroke="#3d2418" stroke-width="1.4"/><circle r="2.3" fill="#efe2c4"/></g></g>
<g><text x="277.0" y="562.1" text-anchor="middle" font-size="15" fill="#3d2418" paint-order="stroke" stroke="#efe2c4" stroke-width="3.4" stroke-linejoin="round" font-style="italic">Gravesite Plain</text><text x="373.4" y="485.0" text-anchor="middle" font-size="15" fill="#3d2418" paint-order="stroke" stroke="#efe2c4" stroke-width="3.4" stroke-linejoin="round" font-style="italic">Belurat</text><text x="371.1" y="500.7" text-anchor="middle" font-size="15" fill="#3d2418" paint-order="stroke" stroke="#efe2c4" stroke-width="3.4" stroke-linejoin="round" font-style="italic">Castle Ensis</text><text x="397.7" y="911.4" text-anchor="middle" font-size="15" fill="#3d2418" paint-order="stroke" stroke="#efe2c4" stroke-width="3.4" stroke-linejoin="round" font-style="italic">Charo's Grave</text><text x="532.2" y="459.8" text-anchor="middle" font-size="15" fill="#3d2418" paint-order="stroke" stroke="#efe2c4" stroke-width="3.4" stroke-linejoin="round" font-style="italic">Scadu Altus</text><text x="518.4" y="61.4" text-anchor="middle" font-size="15" fill="#3d2418" paint-order="stroke" stroke="#efe2c4" stroke-width="3.4" stroke-linejoin="round" font-style="italic">Scaduview</text><text x="358.9" y="995.4" text-anchor="middle" font-size="15" fill="#3d2418" paint-order="stroke" stroke="#efe2c4" stroke-width="3.4" stroke-linejoin="round" font-style="italic">Cerulean Coast</text><text x="756.9" y="889.6" text-anchor="middle" font-size="15" fill="#3d2418" paint-order="stroke" stroke="#efe2c4" stroke-width="3.4" stroke-linejoin="round" font-style="italic">Jagged Peak</text><text x="179.0" y="302.4" text-anchor="middle" font-size="15" fill="#3d2418" paint-order="stroke" stroke="#efe2c4" stroke-width="3.4" stroke-linejoin="round" font-style="italic">Rauh Base</text><text x="234.9" y="285.6" text-anchor="middle" font-size="15" fill="#3d2418" paint-order="stroke" stroke="#efe2c4" stroke-width="3.4" stroke-linejoin="round" font-style="italic">Ancient Ruins of Rauh</text><text x="711.8" y="748.0" text-anchor="middle" font-size="15" fill="#3d2418" paint-order="stroke" stroke="#efe2c4" stroke-width="3.4" stroke-linejoin="round" font-style="italic">Abyssal Woods</text></g>
<rect x="20" y="20" width="1000" height="1259" fill="none" stroke="#6f5a33" stroke-width="2.5"/>
<g transform="translate(520,48)" text-anchor="middle">
  <text y="0" font-size="30" fill="#4a3a1e" letter-spacing="3" font-style="italic">The Land of Shadow</text>
  <text y="20" font-size="12" fill="#6f5a33" letter-spacing="1.5">Archipelago Tracker DLC &#183; region pins at real coordinate centroids</text>
</g>
</svg>