<svg viewBox="0 0 1040 1299" xmlns="http://www.w3.org/2000/svg" font-family="Georgia, 'Times New Roman', serif">
<defs>
  <radialGradient id="parch" cx="50%" cy="42%" r="78%">
    <stop offset="0%" stop-color="#efe2c4"/><stop offset="60%" stop-color="#e7d6b2"/><stop offset="100%" stop-color="#d6bf8e"/></radialGradient>
  <radialGradient id="landg" cx="44%" cy="36%" r="85%">
    <stop offset="0%" stop-color="#cdb487"/><stop offset="70%" stop-color="#b59a64"/><stop offset="100%" stop-color="#9c8050"/></radialGradient>
</defs>
<rect width="1040" height="1299" fill="url(#parch)"/>
<path d="M 60.2 248.2 L 61.9 242.0 L 63.8 236.1 L 65.6 230.4 L 67.6 225.1 L 69.6 219.9 L 71.6 215.1 L 73.7 210.5 L 75.9 206.2 L 78.1 202.2 L 80.5 198.5 L 82.9 195.2 L 85.5 192.3 L 88.3 189.7 L 91.1 187.6 L 94.1 185.8 L 97.2 184.4 L 100.4 183.3 L 103.7 182.3 L 106.9 181.3 L 110.1 180.3 L 113.3 179.2 L 116.6 178.2 L 119.8 177.2 L 123.0 176.1 L 126.2 175.1 L 129.5 174.1 L 132.7 173.0 L 135.9 172.0 L 139.1 171.0 L 142.4 169.9 L 145.6 168.9 L 148.8 167.9 L 152.0 166.8 L 155.3 165.8 L 158.5 164.8 L 161.7 163.7 L 164.9 162.7 L 168.2 161.7 L 171.4 160.6 L 174.6 159.6 L 177.8 158.6 L 181.1 157.6 L 184.3 156.5 L 187.5 155.5 L 190.7 154.5 L 194.0 153.4 L 197.2 152.4 L 200.4 151.4 L 203.6 150.3 L 206.9 149.3 L 210.1 148.3 L 213.3 147.2 L 216.5 146.2 L 219.8 145.2 L 223.0 144.1 L 226.2 143.1 L 229.5 142.1 L 232.7 141.0 L 235.9 140.0 L 239.1 139.0 L 242.4 138.0 L 245.6 136.9 L 248.8 135.9 L 252.0 134.9 L 255.3 133.8 L 258.5 132.8 L 261.7 131.8 L 264.9 130.7 L 268.2 129.7 L 271.4 128.7 L 274.6 127.6 L 277.8 126.6 L 281.1 125.6 L 284.3 124.5 L 287.5 123.5 L 290.7 122.5 L 294.0 121.4 L 297.2 120.4 L 300.4 119.4 L 303.6 118.3 L 306.9 117.3 L 310.1 116.3 L 313.3 115.3 L 316.5 114.2 L 319.8 113.2 L 323.0 112.2 L 326.2 111.1 L 329.4 110.1 L 332.7 109.1 L 335.9 108.0 L 339.1 107.0 L 342.3 106.0 L 345.6 104.9 L 348.8 103.9 L 352.0 102.9 L 355.3 101.8 L 358.5 100.8 L 361.7 99.8 L 364.9 98.7 L 368.2 97.7 L 371.4 96.7 L 374.6 95.6 L 377.8 94.6 L 381.1 93.6 L 384.3 92.6 L 387.5 91.5 L 390.7 90.5 L 394.0 89.5 L 397.2 88.4 L 400.4 87.4 L 403.6 86.4 L 406.9 85.3 L 410.1 84.3 L 413.3 83.3 L 416.5 82.2 L 419.8 81.2 L 423.0 80.2 L 426.2 79.1 L 429.4 78.1 L 432.7 77.1 L 435.9 76.0 L 439.1 75.0 L 442.3 74.0 L 445.6 72.9 L 448.8 71.9 L 452.0 70.9 L 455.2 69.9 L 458.5 68.8 L 461.7 67.8 L 464.9 66.8 L 468.1 65.7 L 471.4 64.7 L 474.6 63.7 L 477.8 62.6 L 481.1 61.6 L 484.3 60.6 L 487.5 59.5 L 490.7 58.5 L 494.0 57.5 L 497.2 56.4 L 500.4 55.4 L 503.6 54.4 L 506.9 53.3 L 510.1 52.3 L 513.3 51.3 L 516.6 50.5 L 519.8 50.0 L 523.1 49.7 L 526.4 49.7 L 529.7 50.0 L 533.0 50.5 L 536.3 51.3 L 539.7 52.3 L 543.0 53.4 L 546.4 54.4 L 549.7 55.4 L 553.1 56.5 L 556.5 57.5 L 559.8 58.5 L 563.2 59.6 L 566.5 60.6 L 569.9 61.6 L 573.2 62.7 L 576.6 63.7 L 579.9 64.8 L 583.3 65.8 L 586.6 66.8 L 590.0 67.9 L 593.3 68.9 L 596.7 69.9 L 600.0 71.0 L 603.4 72.0 L 606.8 73.0 L 610.1 74.1 L 613.5 75.1 L 616.8 76.1 L 620.2 77.2 L 623.5 78.2 L 626.9 79.2 L 630.2 80.3 L 633.6 81.3 L 636.9 82.4 L 640.3 83.4 L 643.6 84.4 L 647.0 85.5 L 650.3 86.5 L 653.7 87.5 L 657.1 88.6 L 660.4 89.6 L 663.8 90.6 L 667.1 91.7 L 670.5 92.7 L 673.8 93.7 L 677.2 94.8 L 680.5 95.8 L 683.9 96.9 L 687.2 97.9 L 690.6 98.9 L 693.9 100.0 L 697.3 101.0 L 700.6 102.0 L 704.0 103.1 L 707.3 104.1 L 710.7 105.1 L 714.1 106.2 L 717.4 107.2 L 720.8 108.2 L 724.1 109.3 L 727.5 110.3 L 730.8 111.3 L 734.2 112.4 L 737.5 113.4 L 740.9 114.5 L 744.2 115.5 L 747.6 116.5 L 750.9 117.6 L 754.3 118.6 L 757.6 119.6 L 761.0 120.7 L 764.4 121.7 L 767.7 122.7 L 771.1 123.8 L 774.4 124.8 L 777.8 125.8 L 781.1 126.9 L 784.4 128.1 L 787.6 129.4 L 790.7 130.8 L 793.7 132.4 L 796.6 134.1 L 799.5 136.0 L 802.2 138.0 L 804.9 140.1 L 807.6 142.2 L 810.2 144.4 L 812.9 146.5 L 815.6 148.6 L 818.3 150.8 L 820.9 152.9 L 823.6 155.0 L 826.3 157.2 L 829.0 159.3 L 831.6 161.4 L 834.3 163.6 L 837.0 165.7 L 839.7 167.8 L 842.3 170.0 L 845.0 172.1 L 847.7 174.2 L 850.4 176.4 L 853.0 178.5 L 855.7 180.6 L 858.4 182.8 L 861.1 184.9 L 863.7 187.0 L 866.4 189.2 L 869.1 191.3 L 871.5 193.6 L 873.6 196.0 L 875.5 198.5 L 877.1 201.2 L 878.4 204.0 L 879.5 207.0 L 880.3 210.1 L 880.8 213.3 L 881.3 216.6 L 881.8 219.8 L 882.3 223.0 L 882.9 226.3 L 883.4 229.5 L 883.9 232.7 L 884.4 236.0 L 884.9 239.2 L 885.5 242.4 L 886.0 245.7 L 886.5 248.9 L 887.0 252.1 L 887.5 255.4 L 888.1 258.6 L 888.6 261.8 L 889.1 265.1 L 889.6 268.3 L 890.1 271.5 L 890.7 274.8 L 891.2 278.0 L 891.7 281.2 L 892.2 284.5 L 892.7 287.7 L 893.3 290.9 L 893.8 294.2 L 894.3 297.4 L 894.8 300.6 L 895.3 303.9 L 895.9 307.1 L 896.4 310.3 L 896.9 313.6 L 897.4 316.8 L 897.9 320.0 L 898.4 323.3 L 899.0 326.5 L 899.5 329.7 L 900.0 333.0 L 900.5 336.2 L 901.0 339.4 L 901.6 342.7 L 902.1 345.9 L 902.6 349.1 L 903.1 352.4 L 903.6 355.6 L 904.2 358.8 L 904.7 362.1 L 905.2 365.3 L 905.7 368.5 L 906.2 371.8 L 906.8 375.0 L 907.3 378.2 L 907.8 381.5 L 908.3 384.7 L 908.8 387.9 L 909.4 391.2 L 909.9 394.4 L 910.4 397.7 L 910.9 400.9 L 911.4 404.1 L 912.0 407.4 L 912.5 410.6 L 913.0 413.8 L 913.5 417.1 L 914.0 420.3 L 914.6 423.5 L 915.1 426.8 L 915.6 430.0 L 916.1 433.2 L 916.6 436.5 L 917.2 439.7 L 917.7 442.9 L 918.2 446.2 L 918.7 449.4 L 919.2 452.6 L 919.8 455.9 L 920.3 459.1 L 920.8 462.3 L 921.3 465.6 L 921.8 468.8 L 922.4 472.0 L 922.9 475.3 L 923.4 478.5 L 923.9 481.7 L 924.4 485.0 L 925.0 488.2 L 925.5 491.4 L 926.0 494.7 L 926.5 497.9 L 927.0 501.1 L 927.6 504.4 L 928.1 507.6 L 928.6 510.8 L 929.1 514.1 L 929.6 517.3 L 930.2 520.5 L 930.7 523.8 L 931.2 527.0 L 931.7 530.2 L 932.2 533.5 L 932.8 536.7 L 933.3 539.9 L 933.8 543.2 L 934.3 546.4 L 934.8 549.6 L 935.4 552.9 L 935.9 556.1 L 936.4 559.3 L 936.9 562.6 L 937.4 565.8 L 938.0 569.0 L 938.5 572.3 L 939.0 575.5 L 939.5 578.7 L 940.0 582.0 L 940.6 585.2 L 941.1 588.4 L 941.6 591.7 L 942.1 594.9 L 942.6 598.1 L 943.2 601.4 L 943.7 604.6 L 944.2 607.8 L 944.7 611.1 L 945.2 614.3 L 945.8 617.5 L 946.3 620.8 L 946.8 624.0 L 947.3 627.2 L 947.8 630.5 L 948.3 633.7 L 948.9 636.9 L 949.4 640.2 L 949.9 643.4 L 950.4 646.6 L 950.9 649.9 L 951.5 653.1 L 952.0 656.3 L 952.5 659.6 L 953.0 662.8 L 953.5 666.0 L 954.1 669.3 L 954.6 672.5 L 955.1 675.7 L 955.6 679.0 L 956.1 682.2 L 956.7 685.4 L 957.2 688.7 L 957.7 691.9 L 958.2 695.1 L 958.7 698.4 L 959.3 701.6 L 959.8 704.8 L 960.3 708.1 L 960.8 711.3 L 961.3 714.5 L 961.9 717.8 L 962.4 721.0 L 962.9 724.3 L 963.4 727.5 L 963.9 730.7 L 964.5 734.0 L 965.0 737.2 L 965.5 740.4 L 966.0 743.7 L 966.5 746.9 L 967.1 750.1 L 967.6 753.4 L 968.1 756.6 L 968.6 759.8 L 969.1 763.1 L 969.7 766.3 L 970.2 769.5 L 970.7 772.8 L 971.2 776.0 L 971.7 779.2 L 972.3 782.5 L 972.8 785.7 L 973.3 788.9 L 973.8 792.2 L 974.3 795.4 L 974.9 798.6 L 975.4 801.9 L 975.9 805.1 L 976.4 808.3 L 976.9 811.6 L 977.5 814.8 L 978.0 818.0 L 978.5 821.3 L 979.0 824.5 L 979.5 827.7 L 980.1 831.0 L 980.6 834.2 L 981.1 837.4 L 981.6 840.7 L 982.1 843.9 L 982.7 847.1 L 983.2 850.4 L 983.7 853.6 L 984.2 856.8 L 984.7 860.1 L 985.3 863.3 L 985.8 866.5 L 986.3 869.8 L 986.8 873.0 L 987.3 876.2 L 987.9 879.5 L 988.4 882.7 L 988.9 885.9 L 989.4 889.2 L 989.9 892.4 L 990.5 895.6 L 991.0 898.9 L 991.5 902.1 L 992.0 905.3 L 992.5 908.6 L 993.1 911.8 L 993.6 915.0 L 994.1 918.3 L 994.6 921.5 L 995.1 924.7 L 995.6 928.0 L 996.2 931.2 L 996.7 934.4 L 997.2 937.7 L 997.3 940.7 L 996.9 943.5 L 996.1 946.1 L 994.9 948.4 L 993.2 950.6 L 991.1 952.5 L 988.5 954.2 L 985.5 955.6 L 982.5 957.1 L 979.5 958.6 L 976.5 960.1 L 973.5 961.6 L 970.4 963.0 L 967.4 964.5 L 964.4 966.0 L 961.4 967.5 L 958.4 969.0 L 955.4 970.4 L 952.4 971.9 L 949.4 973.4 L 946.4 974.9 L 943.4 976.4 L 940.4 977.8 L 937.4 979.3 L 934.3 980.8 L 931.3 982.3 L 928.3 983.8 L 925.3 985.2 L 922.3 986.7 L 919.3 988.2 L 916.3 989.7 L 913.3 991.1 L 910.3 992.6 L 907.3 994.1 L 904.3 995.6 L 901.3 997.1 L 898.2 998.5 L 895.2 1000.0 L 892.2 1001.5 L 889.2 1003.0 L 886.2 1004.5 L 883.2 1005.9 L 880.2 1007.4 L 877.2 1008.9 L 874.2 1010.4 L 871.2 1011.9 L 868.2 1013.3 L 865.2 1014.8 L 862.2 1016.3 L 859.1 1017.8 L 856.1 1019.3 L 853.1 1020.7 L 850.1 1022.2 L 847.1 1023.7 L 844.1 1025.2 L 841.1 1026.7 L 838.1 1028.1 L 835.1 1029.6 L 832.1 1031.1 L 829.1 1032.6 L 826.1 1034.0 L 823.0 1035.5 L 820.0 1037.0 L 817.0 1038.5 L 814.0 1040.0 L 811.0 1041.4 L 808.0 1042.9 L 805.0 1044.4 L 802.0 1045.9 L 799.0 1047.4 L 796.0 1048.8 L 793.0 1050.3 L 790.0 1051.8 L 786.9 1053.3 L 783.9 1054.8 L 780.9 1056.2 L 777.9 1057.7 L 774.9 1059.2 L 771.9 1060.7 L 768.9 1062.2 L 765.9 1063.6 L 762.9 1065.1 L 759.9 1066.6 L 756.9 1068.1 L 753.9 1069.6 L 750.8 1071.0 L 747.8 1072.5 L 744.8 1074.0 L 741.8 1075.5 L 738.8 1076.9 L 735.8 1078.4 L 732.8 1079.9 L 729.8 1081.4 L 726.8 1082.9 L 723.8 1084.3 L 720.8 1085.8 L 717.8 1087.3 L 714.7 1088.8 L 711.7 1090.3 L 708.7 1091.7 L 705.7 1093.2 L 702.7 1094.7 L 699.7 1096.2 L 696.7 1097.7 L 693.7 1099.1 L 690.7 1100.6 L 687.7 1102.1 L 684.7 1103.6 L 681.7 1105.1 L 678.6 1106.5 L 675.6 1108.0 L 672.6 1109.5 L 669.6 1111.0 L 666.6 1112.4 L 663.6 1113.9 L 660.6 1115.4 L 657.6 1116.9 L 654.6 1118.4 L 651.6 1119.8 L 648.6 1121.3 L 645.6 1122.8 L 642.5 1124.3 L 639.5 1125.8 L 636.5 1127.2 L 633.5 1128.7 L 630.5 1130.2 L 627.5 1131.7 L 624.5 1133.2 L 621.5 1134.6 L 618.5 1136.1 L 615.5 1137.6 L 612.5 1139.1 L 609.5 1140.6 L 606.4 1142.0 L 603.4 1143.5 L 600.4 1145.0 L 597.4 1146.5 L 594.4 1148.0 L 591.4 1149.4 L 588.4 1150.9 L 585.4 1152.4 L 582.4 1153.9 L 579.4 1155.3 L 576.4 1156.8 L 573.4 1158.3 L 570.3 1159.8 L 567.3 1161.3 L 564.3 1162.7 L 561.3 1164.2 L 558.3 1165.7 L 555.3 1167.2 L 552.3 1168.7 L 549.3 1170.1 L 546.3 1171.6 L 543.3 1173.1 L 540.3 1174.6 L 537.3 1176.1 L 534.2 1177.5 L 531.2 1179.0 L 528.2 1180.5 L 525.2 1182.0 L 522.2 1183.5 L 519.2 1184.9 L 516.2 1186.4 L 513.2 1187.9 L 510.2 1189.4 L 507.2 1190.9 L 504.2 1192.3 L 501.2 1193.8 L 498.1 1195.3 L 495.1 1196.8 L 492.1 1198.2 L 489.1 1199.7 L 486.1 1201.2 L 483.1 1202.7 L 480.1 1204.2 L 477.1 1205.6 L 474.1 1207.1 L 471.1 1208.6 L 468.1 1210.1 L 465.1 1211.6 L 462.0 1213.0 L 459.0 1214.5 L 456.0 1216.0 L 453.0 1217.5 L 450.0 1219.0 L 447.0 1220.4 L 444.0 1221.9 L 441.0 1223.4 L 438.0 1224.9 L 435.0 1226.4 L 432.0 1227.8 L 429.0 1229.3 L 425.9 1230.8 L 422.9 1232.3 L 419.9 1233.7 L 416.9 1235.2 L 413.9 1236.7 L 410.9 1238.2 L 407.9 1239.7 L 404.9 1241.1 L 401.9 1242.6 L 398.9 1244.1 L 395.9 1245.6 L 392.9 1247.1 L 389.8 1248.5 L 386.8 1250.0 L 383.8 1251.5 L 380.5 1252.9 L 376.9 1254.3 L 373.1 1255.5 L 368.9 1256.8 L 364.4 1257.9 L 359.7 1259.0 L 354.7 1260.0 L 349.3 1261.0 L 344.5 1261.4 L 340.2 1261.4 L 336.3 1260.9 L 333.0 1259.9 L 330.1 1258.4 L 327.7 1256.4 L 325.8 1253.9 L 324.4 1251.0 L 323.0 1248.0 L 321.6 1245.0 L 320.2 1242.0 L 318.8 1239.1 L 317.5 1236.1 L 316.1 1233.1 L 314.7 1230.2 L 313.3 1227.2 L 311.9 1224.2 L 310.5 1221.2 L 309.1 1218.3 L 307.7 1215.3 L 306.3 1212.3 L 304.9 1209.3 L 303.5 1206.4 L 302.1 1203.4 L 300.7 1200.4 L 299.3 1197.5 L 297.9 1194.5 L 296.5 1191.5 L 295.1 1188.5 L 293.7 1185.6 L 292.3 1182.6 L 290.9 1179.6 L 289.5 1176.7 L 288.1 1173.7 L 286.7 1170.7 L 285.3 1167.7 L 283.9 1164.8 L 282.5 1161.8 L 281.2 1158.8 L 279.8 1155.9 L 278.4 1152.9 L 277.0 1149.9 L 275.6 1146.9 L 274.2 1144.0 L 272.8 1141.0 L 271.4 1138.0 L 270.0 1135.0 L 268.6 1132.1 L 267.2 1129.1 L 265.8 1126.1 L 264.4 1123.2 L 263.0 1120.2 L 261.6 1117.2 L 260.2 1114.2 L 258.8 1111.3 L 257.4 1108.3 L 256.0 1105.3 L 254.6 1102.4 L 253.2 1099.4 L 251.8 1096.4 L 250.4 1093.4 L 249.0 1090.5 L 247.6 1087.5 L 246.2 1084.5 L 244.9 1081.5 L 243.5 1078.6 L 242.1 1075.6 L 240.7 1072.6 L 239.3 1069.7 L 237.9 1066.7 L 236.5 1063.7 L 235.1 1060.7 L 233.7 1057.8 L 232.3 1054.8 L 230.9 1051.8 L 229.5 1048.9 L 228.1 1045.9 L 226.7 1042.9 L 225.3 1039.9 L 223.9 1037.0 L 222.5 1034.0 L 221.1 1031.0 L 219.7 1028.1 L 218.3 1025.1 L 216.9 1022.1 L 215.5 1019.1 L 214.1 1016.2 L 212.7 1013.2 L 211.3 1010.2 L 210.0 1007.2 L 208.6 1004.3 L 207.2 1001.3 L 205.8 998.3 L 204.4 995.4 L 203.0 992.4 L 201.6 989.4 L 200.2 986.4 L 198.8 983.5 L 197.4 980.5 L 196.0 977.5 L 194.6 974.6 L 193.2 971.6 L 191.8 968.6 L 190.4 965.6 L 189.0 962.7 L 187.6 959.7 L 186.2 956.7 L 184.8 953.7 L 183.4 950.8 L 182.0 947.8 L 180.6 944.8 L 179.2 941.9 L 177.8 938.9 L 176.4 935.9 L 175.0 932.9 L 173.7 930.0 L 172.3 927.0 L 170.9 924.0 L 169.5 921.1 L 168.1 918.1 L 166.7 915.1 L 165.3 912.1 L 163.9 909.2 L 162.5 906.2 L 161.1 903.2 L 159.7 900.3 L 158.3 897.3 L 156.9 894.3 L 155.5 891.3 L 154.1 888.4 L 152.7 885.4 L 151.3 882.4 L 149.9 879.4 L 148.5 876.5 L 147.1 873.5 L 145.7 870.5 L 144.3 867.6 L 142.9 864.6 L 141.5 861.6 L 140.1 858.6 L 138.7 855.7 L 137.4 852.7 L 136.0 849.7 L 134.6 846.8 L 133.2 843.8 L 131.8 840.8 L 130.4 837.8 L 129.0 834.9 L 127.6 831.9 L 126.2 828.9 L 124.8 825.9 L 123.4 823.0 L 122.1 820.0 L 121.0 816.9 L 119.9 813.9 L 119.0 810.7 L 118.2 807.6 L 117.6 804.4 L 117.0 801.2 L 116.6 798.0 L 116.2 794.7 L 115.8 791.5 L 115.4 788.2 L 115.0 785.0 L 114.5 781.7 L 114.1 778.5 L 113.7 775.3 L 113.3 772.0 L 112.9 768.8 L 112.4 765.5 L 112.0 762.3 L 111.6 759.0 L 111.2 755.8 L 110.8 752.5 L 110.4 749.3 L 109.9 746.1 L 109.5 742.8 L 109.1 739.6 L 108.7 736.3 L 108.3 733.1 L 107.8 729.8 L 107.4 726.6 L 107.0 723.3 L 106.6 720.1 L 106.2 716.9 L 105.8 713.6 L 105.3 710.4 L 104.9 707.1 L 104.5 703.9 L 104.1 700.6 L 103.7 697.4 L 103.2 694.1 L 102.8 690.9 L 102.4 687.6 L 102.0 684.4 L 101.6 681.2 L 101.2 677.9 L 100.7 674.7 L 100.3 671.4 L 99.9 668.2 L 99.5 664.9 L 99.1 661.7 L 98.6 658.4 L 98.2 655.2 L 97.8 652.0 L 97.4 648.7 L 97.0 645.5 L 96.6 642.2 L 96.1 639.0 L 95.7 635.7 L 95.3 632.5 L 94.9 629.2 L 94.5 626.0 L 94.1 622.8 L 93.6 619.5 L 93.2 616.3 L 92.8 613.0 L 92.4 609.8 L 92.0 606.5 L 91.5 603.3 L 91.1 600.0 L 90.7 596.8 L 90.3 593.6 L 89.9 590.3 L 89.5 587.1 L 89.0 583.8 L 88.6 580.6 L 88.2 577.3 L 87.8 574.1 L 87.4 570.8 L 86.9 567.6 L 86.5 564.3 L 86.1 561.1 L 85.7 557.9 L 85.3 554.6 L 84.9 551.4 L 84.4 548.1 L 84.0 544.9 L 83.6 541.6 L 83.2 538.4 L 82.8 535.1 L 82.3 531.9 L 81.9 528.7 L 81.5 525.4 L 81.1 522.2 L 80.7 518.9 L 80.3 515.7 L 79.8 512.4 L 79.4 509.2 L 79.0 505.9 L 78.6 502.7 L 78.2 499.5 L 77.7 496.2 L 77.3 493.0 L 76.9 489.7 L 76.5 486.5 L 76.1 483.2 L 75.7 480.0 L 75.2 476.7 L 74.8 473.5 L 74.4 470.2 L 74.0 467.0 L 73.6 463.8 L 73.1 460.5 L 72.7 457.3 L 72.3 454.0 L 71.9 450.8 L 71.5 447.5 L 71.1 444.3 L 70.6 441.0 L 70.2 437.8 L 69.8 434.6 L 69.4 431.3 L 69.0 428.1 L 68.6 424.8 L 68.1 421.6 L 67.7 418.3 L 67.3 415.1 L 66.9 411.8 L 66.5 408.6 L 66.0 405.4 L 65.6 402.1 L 65.2 398.9 L 64.8 395.6 L 64.4 392.4 L 64.0 389.1 L 63.5 385.9 L 63.1 382.6 L 62.7 379.4 L 62.3 376.2 L 61.9 372.9 L 61.4 369.7 L 61.0 366.4 L 60.6 363.2 L 60.2 359.9 L 59.8 356.7 L 59.4 353.3 L 59.0 349.6 L 58.6 345.8 L 58.3 341.9 L 58.0 337.7 L 57.7 333.3 L 57.4 328.8 L 57.1 324.1 L 56.8 319.4 L 56.6 314.6 L 56.3 309.9 L 56.0 305.2 L 55.8 300.5 L 55.5 295.8 L 55.2 291.0 L 55.0 286.3 L 55.0 281.4 L 55.2 276.3 L 55.7 271.1 L 56.4 265.6 L 57.4 260.0 L 58.7 254.2 L 60.2 248.2Z" fill="url(#landg)" stroke="#5d4a28" stroke-width="2.6" stroke-linejoin="round"/>
<g fill="#6f5a33" opacity="0.22"><circle cx="325.7" cy="795.3" r="1.4"/><circle cx="427.1" cy="403.0" r="1.4"/><circle cx="410.7" cy="1080.4" r="1.4"/><circle cx="263.8" cy="394.7" r="1.4"/><circle cx="797.1" cy="769.0" r="1.4"/><circle cx="358.8" cy="800.7" r="1.4"/><circle cx="323.7" cy="770.4" r="1.4"/><circle cx="566.1" cy="529.5" r="1.4"/><circle cx="588.5" cy="502.4" r="1.4"/><circle cx="945.3" cy="828.6" r="1.4"/><circle cx="641.5" cy="392.9" r="1.4"/><circle cx="328.0" cy="765.4" r="1.4"/><circle cx="676.8" cy="419.3" r="1.4"/><circle cx="234.9" cy="833.5" r="1.4"/><circle cx="357.0" cy="660.0" r="1.4"/><circle cx="483.2" cy="618.4" r="1.4"/><circle cx="121.1" cy="309.2" r="1.4"/><circle cx="248.8" cy="506.9" r="1.4"/><circle cx="553.5" cy="745.8" r="1.4"/><circle cx="70.0" cy="281.6" r="1.4"/><circle cx="316.8" cy="466.6" r="1.4"/><circle cx="337.9" cy="949.9" r="1.4"/><circle cx="664.7" cy="761.1" r="1.4"/><circle cx="270.0" cy="600.5" r="1.4"/><circle cx="445.0" cy="652.9" r="1.4"/><circle cx="433.4" cy="1069.2" r="1.4"/><circle cx="471.3" cy="478.6" r="1.4"/><circle cx="372.3" cy="491.3" r="1.4"/><circle cx="535.7" cy="933.6" r="1.4"/><circle cx="528.3" cy="634.6" r="1.4"/><circle cx="474.6" cy="1005.2" r="1.4"/><circle cx="254.9" cy="208.4" r="1.4"/><circle cx="431.7" cy="329.6" r="1.4"/><circle cx="313.2" cy="545.4" r="1.4"/><circle cx="230.6" cy="306.2" r="1.4"/><circle cx="489.9" cy="981.9" r="1.4"/><circle cx="282.0" cy="1004.8" r="1.4"/><circle cx="374.1" cy="1221.4" r="1.4"/><circle cx="442.6" cy="627.0" r="1.4"/><circle cx="148.0" cy="653.4" r="1.4"/><circle cx="148.0" cy="653.4" r="1.4"/><circle cx="625.3" cy="427.0" r="1.4"/><circle cx="625.3" cy="427.0" r="1.4"/><circle cx="625.3" cy="427.0" r="1.4"/><circle cx="623.4" cy="424.9" r="1.4"/><circle cx="644.9" cy="431.1" r="1.4"/><circle cx="538.4" cy="963.1" r="1.4"/><circle cx="538.3" cy="962.9" r="1.4"/><circle cx="404.8" cy="664.6" r="1.4"/><circle cx="760.8" cy="875.4" r="1.4"/><circle cx="496.3" cy="478.8" r="1.4"/><circle cx="740.2" cy="870.8" r="1.4"/><circle cx="903.1" cy="926.0" r="1.4"/><circle cx="400.6" cy="1014.7" r="1.4"/><circle cx="241.4" cy="853.7" r="1.4"/><circle cx="537.5" cy="802.3" r="1.4"/><circle cx="368.8" cy="910.0" r="1.4"/><circle cx="200.2" cy="542.0" r="1.4"/><circle cx="83.4" cy="234.5" r="1.4"/><circle cx="536.9" cy="398.7" r="1.4"/><circle cx="243.6" cy="365.6" r="1.4"/><circle cx="509.6" cy="563.1" r="1.4"/><circle cx="337.8" cy="480.1" r="1.4"/><circle cx="773.6" cy="148.9" r="1.4"/><circle cx="534.7" cy="631.9" r="1.4"/><circle cx="609.8" cy="448.4" r="1.4"/><circle cx="462.2" cy="549.5" r="1.4"/><circle cx="703.8" cy="464.5" r="1.4"/><circle cx="467.9" cy="533.9" r="1.4"/><circle cx="455.6" cy="558.9" r="1.4"/><circle cx="179.4" cy="568.2" r="1.4"/><circle cx="278.2" cy="478.4" r="1.4"/><circle cx="868.2" cy="877.0" r="1.4"/><circle cx="131.4" cy="798.5" r="1.4"/><circle cx="132.2" cy="793.1" r="1.4"/><circle cx="130.4" cy="409.7" r="1.4"/><circle cx="109.1" cy="419.1" r="1.4"/><circle cx="116.6" cy="416.4" r="1.4"/><circle cx="118.3" cy="442.0" r="1.4"/><circle cx="141.9" cy="415.9" r="1.4"/><circle cx="133.9" cy="381.4" r="1.4"/><circle cx="96.9" cy="315.4" r="1.4"/><circle cx="109.3" cy="316.3" r="1.4"/><circle cx="136.5" cy="381.9" r="1.4"/><circle cx="74.1" cy="353.5" r="1.4"/><circle cx="120.3" cy="330.2" r="1.4"/><circle cx="104.2" cy="315.1" r="1.4"/><circle cx="109.3" cy="315.3" r="1.4"/><circle cx="77.1" cy="343.7" r="1.4"/><circle cx="105.8" cy="377.1" r="1.4"/><circle cx="107.9" cy="311.8" r="1.4"/><circle cx="76.4" cy="317.0" r="1.4"/><circle cx="93.3" cy="221.8" r="1.4"/><circle cx="101.8" cy="204.5" r="1.4"/><circle cx="103.1" cy="206.3" r="1.4"/><circle cx="100.4" cy="203.6" r="1.4"/><circle cx="127.4" cy="283.9" r="1.4"/><circle cx="86.9" cy="262.7" r="1.4"/><circle cx="178.5" cy="793.8" r="1.4"/><circle cx="175.9" cy="803.9" r="1.4"/><circle cx="162.6" cy="813.1" r="1.4"/><circle cx="159.0" cy="798.9" r="1.4"/><circle cx="220.7" cy="796.7" r="1.4"/><circle cx="221.1" cy="795.0" r="1.4"/><circle cx="220.8" cy="764.2" r="1.4"/><circle cx="155.6" cy="803.7" r="1.4"/><circle cx="154.4" cy="818.3" r="1.4"/><circle cx="208.8" cy="805.3" r="1.4"/><circle cx="163.6" cy="811.2" r="1.4"/><circle cx="195.0" cy="689.9" r="1.4"/><circle cx="150.2" cy="652.7" r="1.4"/><circle cx="171.1" cy="582.6" r="1.4"/><circle cx="218.4" cy="607.4" r="1.4"/><circle cx="211.6" cy="497.7" r="1.4"/><circle cx="205.3" cy="545.3" r="1.4"/><circle cx="151.8" cy="519.1" r="1.4"/><circle cx="149.3" cy="431.2" r="1.4"/><circle cx="175.2" cy="446.3" r="1.4"/><circle cx="144.7" cy="443.3" r="1.4"/><circle cx="141.2" cy="336.2" r="1.4"/><circle cx="178.5" cy="395.6" r="1.4"/><circle cx="149.6" cy="327.4" r="1.4"/><circle cx="231.3" cy="342.1" r="1.4"/><circle cx="223.5" cy="368.2" r="1.4"/><circle cx="179.4" cy="315.7" r="1.4"/><circle cx="212.0" cy="356.4" r="1.4"/><circle cx="204.4" cy="313.4" r="1.4"/><circle cx="157.2" cy="330.0" r="1.4"/><circle cx="220.6" cy="370.0" r="1.4"/><circle cx="154.3" cy="329.2" r="1.4"/><circle cx="194.5" cy="250.8" r="1.4"/><circle cx="207.8" cy="321.0" r="1.4"/><circle cx="150.6" cy="291.3" r="1.4"/><circle cx="221.0" cy="235.3" r="1.4"/><circle cx="218.6" cy="307.8" r="1.4"/><circle cx="213.5" cy="239.7" r="1.4"/><circle cx="206.0" cy="204.1" r="1.4"/><circle cx="297.5" cy="994.4" r="1.4"/><circle cx="285.1" cy="992.5" r="1.4"/><circle cx="284.3" cy="990.9" r="1.4"/><circle cx="294.0" cy="984.9" r="1.4"/><circle cx="232.9" cy="995.6" r="1.4"/><circle cx="302.0" cy="985.9" r="1.4"/><circle cx="241.8" cy="1023.4" r="1.4"/><circle cx="246.5" cy="950.6" r="1.4"/><circle cx="289.4" cy="970.0" r="1.4"/><circle cx="262.5" cy="922.4" r="1.4"/><circle cx="214.7" cy="937.6" r="1.4"/><circle cx="266.7" cy="951.2" r="1.4"/><circle cx="269.3" cy="861.1" r="1.4"/><circle cx="269.3" cy="861.1" r="1.4"/><circle cx="269.3" cy="861.1" r="1.4"/><circle cx="269.3" cy="861.1" r="1.4"/><circle cx="269.3" cy="861.1" r="1.4"/><circle cx="238.0" cy="860.6" r="1.4"/><circle cx="266.3" cy="838.6" r="1.4"/><circle cx="271.2" cy="879.1" r="1.4"/><circle cx="264.0" cy="876.1" r="1.4"/><circle cx="261.0" cy="653.7" r="1.4"/><circle cx="306.2" cy="576.8" r="1.4"/><circle cx="307.8" cy="573.1" r="1.4"/><circle cx="316.4" cy="567.9" r="1.4"/><circle cx="271.5" cy="599.8" r="1.4"/><circle cx="270.9" cy="599.0" r="1.4"/><circle cx="254.6" cy="528.2" r="1.4"/><circle cx="270.1" cy="530.3" r="1.4"/><circle cx="249.7" cy="513.3" r="1.4"/><circle cx="273.2" cy="510.4" r="1.4"/><circle cx="277.0" cy="515.6" r="1.4"/><circle cx="302.4" cy="549.3" r="1.4"/><circle cx="273.8" cy="530.2" r="1.4"/><circle cx="267.3" cy="514.7" r="1.4"/><circle cx="228.7" cy="486.4" r="1.4"/><circle cx="263.1" cy="550.4" r="1.4"/><circle cx="248.0" cy="444.4" r="1.4"/><circle cx="223.0" cy="412.1" r="1.4"/><circle cx="228.7" cy="442.5" r="1.4"/><circle cx="228.4" cy="431.9" r="1.4"/><circle cx="228.2" cy="420.2" r="1.4"/><circle cx="225.9" cy="428.5" r="1.4"/><circle cx="237.9" cy="432.9" r="1.4"/><circle cx="229.9" cy="472.9" r="1.4"/><circle cx="216.9" cy="398.3" r="1.4"/><circle cx="239.3" cy="379.8" r="1.4"/><circle cx="231.6" cy="440.4" r="1.4"/><circle cx="288.3" cy="317.8" r="1.4"/><circle cx="283.3" cy="361.8" r="1.4"/><circle cx="305.1" cy="381.7" r="1.4"/><circle cx="258.5" cy="260.7" r="1.4"/><circle cx="231.4" cy="263.8" r="1.4"/><circle cx="273.7" cy="238.6" r="1.4"/><circle cx="238.1" cy="257.1" r="1.4"/><circle cx="223.5" cy="232.5" r="1.4"/><circle cx="241.5" cy="259.5" r="1.4"/><circle cx="269.8" cy="257.7" r="1.4"/><circle cx="283.7" cy="292.3" r="1.4"/><circle cx="270.2" cy="236.7" r="1.4"/><circle cx="273.0" cy="240.0" r="1.4"/><circle cx="256.4" cy="251.9" r="1.4"/><circle cx="250.5" cy="282.3" r="1.4"/><circle cx="241.7" cy="302.8" r="1.4"/><circle cx="321.3" cy="278.8" r="1.4"/><circle cx="279.7" cy="285.1" r="1.4"/><circle cx="233.0" cy="297.4" r="1.4"/><circle cx="223.4" cy="262.3" r="1.4"/><circle cx="219.4" cy="235.9" r="1.4"/><circle cx="235.0" cy="266.5" r="1.4"/><circle cx="230.6" cy="306.2" r="1.4"/><circle cx="245.0" cy="221.5" r="1.4"/><circle cx="254.9" cy="208.4" r="1.4"/><circle cx="333.5" cy="1228.7" r="1.4"/><circle cx="342.1" cy="1169.8" r="1.4"/><circle cx="348.5" cy="1223.8" r="1.4"/><circle cx="359.0" cy="1113.0" r="1.4"/><circle cx="300.1" cy="974.4" r="1.4"/><circle cx="371.7" cy="992.4" r="1.4"/><circle cx="365.1" cy="914.5" r="1.4"/><circle cx="376.5" cy="873.4" r="1.4"/><circle cx="314.2" cy="948.1" r="1.4"/><circle cx="348.3" cy="965.1" r="1.4"/><circle cx="324.9" cy="920.3" r="1.4"/><circle cx="320.3" cy="922.6" r="1.4"/><circle cx="375.8" cy="839.6" r="1.4"/><circle cx="376.3" cy="837.6" r="1.4"/><circle cx="380.8" cy="835.2" r="1.4"/><circle cx="313.8" cy="874.2" r="1.4"/><circle cx="313.7" cy="882.1" r="1.4"/><circle cx="382.6" cy="726.0" r="1.4"/><circle cx="353.2" cy="823.6" r="1.4"/><circle cx="322.3" cy="762.1" r="1.4"/><circle cx="310.0" cy="770.0" r="1.4"/><circle cx="312.7" cy="770.3" r="1.4"/><circle cx="336.6" cy="765.6" r="1.4"/><circle cx="355.1" cy="743.1" r="1.4"/><circle cx="362.5" cy="745.1" r="1.4"/><circle cx="384.0" cy="777.2" r="1.4"/><circle cx="384.6" cy="782.4" r="1.4"/><circle cx="328.9" cy="755.8" r="1.4"/><circle cx="353.1" cy="740.2" r="1.4"/><circle cx="328.5" cy="639.7" r="1.4"/><circle cx="357.8" cy="703.4" r="1.4"/><circle cx="363.1" cy="679.5" r="1.4"/><circle cx="345.8" cy="683.3" r="1.4"/><circle cx="364.2" cy="681.8" r="1.4"/><circle cx="405.4" cy="559.9" r="1.4"/><circle cx="333.6" cy="579.1" r="1.4"/><circle cx="327.2" cy="575.4" r="1.4"/><circle cx="389.2" cy="573.1" r="1.4"/><circle cx="306.3" cy="590.1" r="1.4"/><circle cx="363.5" cy="608.0" r="1.4"/><circle cx="343.4" cy="520.2" r="1.4"/><circle cx="341.2" cy="505.4" r="1.4"/><circle cx="355.2" cy="509.2" r="1.4"/><circle cx="357.9" cy="482.7" r="1.4"/><circle cx="367.4" cy="486.5" r="1.4"/><circle cx="362.6" cy="503.2" r="1.4"/><circle cx="362.4" cy="517.2" r="1.4"/><circle cx="387.2" cy="518.6" r="1.4"/><circle cx="372.2" cy="536.3" r="1.4"/><circle cx="367.4" cy="545.9" r="1.4"/><circle cx="374.2" cy="543.3" r="1.4"/><circle cx="383.1" cy="544.6" r="1.4"/><circle cx="369.9" cy="489.9" r="1.4"/><circle cx="367.0" cy="507.4" r="1.4"/><circle cx="357.3" cy="495.5" r="1.4"/><circle cx="369.5" cy="541.5" r="1.4"/><circle cx="388.2" cy="525.3" r="1.4"/><circle cx="357.9" cy="514.7" r="1.4"/><circle cx="387.6" cy="497.3" r="1.4"/><circle cx="369.0" cy="505.7" r="1.4"/><circle cx="358.4" cy="513.6" r="1.4"/><circle cx="357.3" cy="517.8" r="1.4"/><circle cx="375.3" cy="495.1" r="1.4"/><circle cx="379.0" cy="543.3" r="1.4"/><circle cx="372.4" cy="497.9" r="1.4"/><circle cx="373.6" cy="495.0" r="1.4"/><circle cx="358.0" cy="509.2" r="1.4"/><circle cx="330.8" cy="546.1" r="1.4"/><circle cx="343.2" cy="503.6" r="1.4"/><circle cx="376.3" cy="508.0" r="1.4"/><circle cx="379.4" cy="534.5" r="1.4"/><circle cx="332.9" cy="561.9" r="1.4"/><circle cx="321.0" cy="471.2" r="1.4"/><circle cx="317.5" cy="463.6" r="1.4"/><circle cx="324.5" cy="479.9" r="1.4"/><circle cx="330.9" cy="471.5" r="1.4"/><circle cx="327.2" cy="467.8" r="1.4"/><circle cx="330.7" cy="460.1" r="1.4"/><circle cx="355.4" cy="486.1" r="1.4"/><circle cx="351.7" cy="403.3" r="1.4"/><circle cx="339.7" cy="458.2" r="1.4"/><circle cx="333.8" cy="485.7" r="1.4"/><circle cx="337.8" cy="479.6" r="1.4"/><circle cx="342.3" cy="378.4" r="1.4"/><circle cx="358.6" cy="327.0" r="1.4"/><circle cx="376.2" cy="315.1" r="1.4"/><circle cx="341.5" cy="372.1" r="1.4"/><circle cx="234.9" cy="296.6" r="1.4"/><circle cx="328.6" cy="237.1" r="1.4"/><circle cx="340.2" cy="299.6" r="1.4"/><circle cx="335.5" cy="263.8" r="1.4"/><circle cx="372.3" cy="239.0" r="1.4"/><circle cx="373.3" cy="233.7" r="1.4"/><circle cx="346.8" cy="253.9" r="1.4"/><circle cx="359.7" cy="287.8" r="1.4"/><circle cx="372.7" cy="245.5" r="1.4"/><circle cx="336.3" cy="261.2" r="1.4"/><circle cx="419.8" cy="1092.0" r="1.4"/><circle cx="467.7" cy="1078.1" r="1.4"/><circle cx="400.4" cy="1059.6" r="1.4"/><circle cx="437.8" cy="1128.9" r="1.4"/><circle cx="411.6" cy="1035.2" r="1.4"/><circle cx="440.1" cy="1036.1" r="1.4"/><circle cx="423.0" cy="1008.6" r="1.4"/><circle cx="398.6" cy="1012.3" r="1.4"/><circle cx="402.2" cy="1013.2" r="1.4"/><circle cx="396.0" cy="1011.4" r="1.4"/><circle cx="436.4" cy="918.9" r="1.4"/><circle cx="475.2" cy="950.6" r="1.4"/><circle cx="411.2" cy="925.9" r="1.4"/><circle cx="457.4" cy="850.9" r="1.4"/><circle cx="384.3" cy="847.6" r="1.4"/><circle cx="358.8" cy="800.7" r="1.4"/><circle cx="431.8" cy="788.8" r="1.4"/><circle cx="392.0" cy="765.5" r="1.4"/><circle cx="427.6" cy="782.7" r="1.4"/><circle cx="403.2" cy="788.7" r="1.4"/><circle cx="430.2" cy="770.4" r="1.4"/><circle cx="433.5" cy="685.8" r="1.4"/><circle cx="411.5" cy="689.1" r="1.4"/><circle cx="455.4" cy="722.5" r="1.4"/><circle cx="401.8" cy="586.9" r="1.4"/><circle cx="445.8" cy="627.0" r="1.4"/><circle cx="417.0" cy="565.8" r="1.4"/><circle cx="398.4" cy="614.1" r="1.4"/><circle cx="441.6" cy="628.3" r="1.4"/><circle cx="394.6" cy="493.4" r="1.4"/><circle cx="436.8" cy="506.0" r="1.4"/><circle cx="438.9" cy="503.5" r="1.4"/><circle cx="389.3" cy="504.1" r="1.4"/><circle cx="448.8" cy="509.8" r="1.4"/><circle cx="399.6" cy="551.5" r="1.4"/><circle cx="396.1" cy="552.3" r="1.4"/><circle cx="425.0" cy="517.4" r="1.4"/><circle cx="414.1" cy="535.3" r="1.4"/><circle cx="420.4" cy="474.0" r="1.4"/><circle cx="408.0" cy="538.1" r="1.4"/><circle cx="427.9" cy="532.4" r="1.4"/><circle cx="423.2" cy="390.1" r="1.4"/><circle cx="422.6" cy="470.8" r="1.4"/><circle cx="471.0" cy="475.0" r="1.4"/><circle cx="412.4" cy="352.5" r="1.4"/><circle cx="482.3" cy="349.0" r="1.4"/><circle cx="440.6" cy="338.5" r="1.4"/><circle cx="425.7" cy="349.1" r="1.4"/><circle cx="456.1" cy="321.0" r="1.4"/><circle cx="457.2" cy="343.5" r="1.4"/><circle cx="440.2" cy="327.7" r="1.4"/><circle cx="428.5" cy="381.7" r="1.4"/><circle cx="516.3" cy="1061.6" r="1.4"/><circle cx="507.1" cy="954.6" r="1.4"/><circle cx="481.2" cy="946.4" r="1.4"/><circle cx="552.4" cy="1004.4" r="1.4"/><circle cx="505.1" cy="966.4" r="1.4"/><circle cx="543.7" cy="1032.0" r="1.4"/><circle cx="549.8" cy="897.4" r="1.4"/><circle cx="552.2" cy="660.8" r="1.4"/><circle cx="526.0" cy="670.5" r="1.4"/><circle cx="509.8" cy="564.6" r="1.4"/><circle cx="481.5" cy="618.0" r="1.4"/><circle cx="520.8" cy="610.9" r="1.4"/><circle cx="532.4" cy="625.5" r="1.4"/><circle cx="524.1" cy="637.4" r="1.4"/><circle cx="521.1" cy="624.0" r="1.4"/><circle cx="518.8" cy="625.2" r="1.4"/><circle cx="520.0" cy="623.5" r="1.4"/><circle cx="539.5" cy="635.5" r="1.4"/><circle cx="538.1" cy="633.7" r="1.4"/><circle cx="529.9" cy="621.1" r="1.4"/><circle cx="533.3" cy="631.3" r="1.4"/><circle cx="525.1" cy="623.1" r="1.4"/><circle cx="520.3" cy="617.4" r="1.4"/><circle cx="518.2" cy="625.2" r="1.4"/><circle cx="520.4" cy="621.9" r="1.4"/><circle cx="529.1" cy="619.6" r="1.4"/><circle cx="518.6" cy="623.8" r="1.4"/><circle cx="524.5" cy="617.3" r="1.4"/><circle cx="540.9" cy="627.4" r="1.4"/><circle cx="535.5" cy="629.5" r="1.4"/><circle cx="540.9" cy="619.9" r="1.4"/><circle cx="534.9" cy="631.4" r="1.4"/><circle cx="543.9" cy="640.7" r="1.4"/><circle cx="549.0" cy="615.2" r="1.4"/><circle cx="545.7" cy="623.8" r="1.4"/><circle cx="522.9" cy="619.4" r="1.4"/><circle cx="535.0" cy="625.0" r="1.4"/><circle cx="523.9" cy="624.8" r="1.4"/><circle cx="534.2" cy="509.9" r="1.4"/><circle cx="529.4" cy="502.1" r="1.4"/><circle cx="541.4" cy="488.4" r="1.4"/><circle cx="530.1" cy="487.4" r="1.4"/><circle cx="544.6" cy="490.6" r="1.4"/><circle cx="538.4" cy="483.2" r="1.4"/><circle cx="478.7" cy="547.8" r="1.4"/><circle cx="528.7" cy="501.0" r="1.4"/><circle cx="557.7" cy="497.3" r="1.4"/><circle cx="496.9" cy="478.8" r="1.4"/><circle cx="537.5" cy="502.5" r="1.4"/><circle cx="530.9" cy="403.9" r="1.4"/><circle cx="530.8" cy="409.0" r="1.4"/><circle cx="532.2" cy="449.1" r="1.4"/><circle cx="506.2" cy="396.8" r="1.4"/><circle cx="515.9" cy="396.4" r="1.4"/><circle cx="526.3" cy="422.8" r="1.4"/><circle cx="495.0" cy="329.5" r="1.4"/><circle cx="484.8" cy="311.5" r="1.4"/><circle cx="527.8" cy="324.1" r="1.4"/><circle cx="534.3" cy="338.0" r="1.4"/><circle cx="542.5" cy="332.2" r="1.4"/><circle cx="548.6" cy="338.5" r="1.4"/><circle cx="549.4" cy="349.7" r="1.4"/><circle cx="471.2" cy="316.7" r="1.4"/><circle cx="479.4" cy="318.2" r="1.4"/><circle cx="539.1" cy="327.3" r="1.4"/><circle cx="532.6" cy="324.9" r="1.4"/><circle cx="477.4" cy="370.5" r="1.4"/><circle cx="473.5" cy="308.6" r="1.4"/><circle cx="528.5" cy="311.0" r="1.4"/><circle cx="536.3" cy="304.3" r="1.4"/><circle cx="535.5" cy="209.1" r="1.4"/><circle cx="478.2" cy="131.7" r="1.4"/><circle cx="517.6" cy="72.4" r="1.4"/><circle cx="473.3" cy="136.3" r="1.4"/><circle cx="518.6" cy="71.1" r="1.4"/><circle cx="518.2" cy="70.0" r="1.4"/><circle cx="517.5" cy="71.1" r="1.4"/><circle cx="518.4" cy="72.4" r="1.4"/><circle cx="600.1" cy="1056.3" r="1.4"/><circle cx="573.2" cy="1007.9" r="1.4"/><circle cx="586.3" cy="732.1" r="1.4"/><circle cx="575.6" cy="563.9" r="1.4"/><circle cx="602.0" cy="623.9" r="1.4"/><circle cx="609.2" cy="613.6" r="1.4"/><circle cx="560.3" cy="626.7" r="1.4"/><circle cx="586.2" cy="620.8" r="1.4"/><circle cx="564.6" cy="559.6" r="1.4"/><circle cx="612.0" cy="498.4" r="1.4"/><circle cx="597.2" cy="546.1" r="1.4"/><circle cx="580.8" cy="518.4" r="1.4"/><circle cx="582.2" cy="518.0" r="1.4"/><circle cx="591.1" cy="537.3" r="1.4"/><circle cx="571.8" cy="515.6" r="1.4"/><circle cx="581.0" cy="519.5" r="1.4"/><circle cx="623.1" cy="509.0" r="1.4"/><circle cx="565.4" cy="529.9" r="1.4"/><circle cx="569.2" cy="519.4" r="1.4"/><circle cx="619.1" cy="489.0" r="1.4"/><circle cx="596.9" cy="557.5" r="1.4"/><circle cx="562.7" cy="493.1" r="1.4"/><circle cx="594.6" cy="554.7" r="1.4"/><circle cx="607.9" cy="481.4" r="1.4"/><circle cx="617.3" cy="507.1" r="1.4"/><circle cx="591.0" cy="455.1" r="1.4"/><circle cx="621.0" cy="476.0" r="1.4"/><circle cx="572.2" cy="453.3" r="1.4"/><circle cx="561.5" cy="412.9" r="1.4"/><circle cx="569.1" cy="402.9" r="1.4"/><circle cx="570.0" cy="306.1" r="1.4"/><circle cx="578.9" cy="298.9" r="1.4"/><circle cx="586.5" cy="334.7" r="1.4"/><circle cx="608.7" cy="328.5" r="1.4"/><circle cx="603.3" cy="352.1" r="1.4"/><circle cx="576.3" cy="333.7" r="1.4"/><circle cx="573.3" cy="341.1" r="1.4"/><circle cx="572.8" cy="309.2" r="1.4"/><circle cx="635.4" cy="320.0" r="1.4"/><circle cx="599.0" cy="321.7" r="1.4"/><circle cx="618.1" cy="278.1" r="1.4"/><circle cx="646.1" cy="265.5" r="1.4"/><circle cx="715.8" cy="777.5" r="1.4"/><circle cx="707.8" cy="715.5" r="1.4"/><circle cx="636.6" cy="515.1" r="1.4"/><circle cx="634.5" cy="501.7" r="1.4"/><circle cx="674.4" cy="520.9" r="1.4"/><circle cx="651.7" cy="488.7" r="1.4"/><circle cx="643.6" cy="505.3" r="1.4"/><circle cx="652.0" cy="444.5" r="1.4"/><circle cx="680.7" cy="455.9" r="1.4"/><circle cx="706.1" cy="305.3" r="1.4"/><circle cx="695.2" cy="379.8" r="1.4"/><circle cx="706.9" cy="305.3" r="1.4"/><circle cx="678.5" cy="227.3" r="1.4"/><circle cx="677.6" cy="226.1" r="1.4"/><circle cx="679.3" cy="226.8" r="1.4"/><circle cx="659.1" cy="244.9" r="1.4"/><circle cx="670.1" cy="273.5" r="1.4"/><circle cx="782.8" cy="824.7" r="1.4"/><circle cx="789.5" cy="778.7" r="1.4"/><circle cx="731.2" cy="804.8" r="1.4"/><circle cx="928.3" cy="903.9" r="1.4"/><circle cx="879.6" cy="885.6" r="1.4"/><circle cx="855.3" cy="947.0" r="1.4"/><circle cx="826.9" cy="877.9" r="1.4"/><circle cx="814.1" cy="773.2" r="1.4"/><circle cx="802.5" cy="756.9" r="1.4"/><circle cx="813.4" cy="780.0" r="1.4"/><circle cx="841.8" cy="215.6" r="1.4"/><circle cx="855.2" cy="213.9" r="1.4"/></g>
<g fill="#e3a000" stroke="#7a5b00" stroke-width="0.5" opacity="0.6"><circle cx="178.5" cy="748.5" r="2.3"/><circle cx="149.5" cy="652.2" r="2.3"/><circle cx="283.8" cy="838.4" r="2.3"/><circle cx="259.4" cy="654.3" r="2.3"/><circle cx="248.1" cy="554.7" r="2.3"/><circle cx="323.5" cy="744.4" r="2.3"/><circle cx="358.1" cy="617.1" r="2.3"/><circle cx="335.2" cy="537.9" r="2.3"/><circle cx="372.3" cy="492.7" r="2.3"/><circle cx="412.6" cy="661.8" r="2.3"/><circle cx="439.1" cy="627.9" r="2.3"/><circle cx="411.4" cy="505.0" r="2.3"/><circle cx="419.5" cy="516.9" r="2.3"/><circle cx="250.1" cy="963.5" r="2.3"/><circle cx="353.8" cy="1224.5" r="2.3"/><circle cx="360.6" cy="757.6" r="2.3"/><circle cx="441.3" cy="1128.2" r="2.3"/><circle cx="397.7" cy="945.5" r="2.3"/><circle cx="404.6" cy="944.6" r="2.3"/><circle cx="470.4" cy="630.7" r="2.3"/><circle cx="542.3" cy="963.1" r="2.3"/><circle cx="593.5" cy="998.6" r="2.3"/><circle cx="632.4" cy="672.5" r="2.3"/><circle cx="714.5" cy="667.7" r="2.3"/><circle cx="701.6" cy="826.9" r="2.3"/><circle cx="738.7" cy="582.5" r="2.3"/><circle cx="924.2" cy="835.0" r="2.3"/><circle cx="808.6" cy="778.5" r="2.3"/><circle cx="940.7" cy="900.0" r="2.3"/><circle cx="970.0" cy="928.4" r="2.3"/><circle cx="133.9" cy="423.2" r="2.3"/><circle cx="80.0" cy="395.1" r="2.3"/><circle cx="82.8" cy="370.7" r="2.3"/><circle cx="174.8" cy="411.0" r="2.3"/><circle cx="207.0" cy="390.2" r="2.3"/><circle cx="178.5" cy="268.5" r="2.3"/><circle cx="233.4" cy="302.4" r="2.3"/><circle cx="348.1" cy="454.6" r="2.3"/><circle cx="312.0" cy="255.4" r="2.3"/><circle cx="422.5" cy="472.9" r="2.3"/><circle cx="400.6" cy="301.6" r="2.3"/><circle cx="506.7" cy="600.7" r="2.3"/><circle cx="529.0" cy="615.1" r="2.3"/><circle cx="539.1" cy="636.3" r="2.3"/><circle cx="494.8" cy="479.3" r="2.3"/><circle cx="551.1" cy="518.9" r="2.3"/><circle cx="528.9" cy="303.2" r="2.3"/><circle cx="515.6" cy="170.0" r="2.3"/><circle cx="526.5" cy="204.5" r="2.3"/><circle cx="587.8" cy="619.3" r="2.3"/><circle cx="612.8" cy="512.3" r="2.3"/><circle cx="574.4" cy="401.9" r="2.3"/><circle cx="556.6" cy="213.0" r="2.3"/><circle cx="582.2" cy="150.3" r="2.3"/><circle cx="671.0" cy="488.3" r="2.3"/><circle cx="650.7" cy="419.4" r="2.3"/><circle cx="684.6" cy="314.5" r="2.3"/><circle cx="747.3" cy="185.5" r="2.3"/><circle cx="659.9" cy="194.5" r="2.3"/></g>
<g><g transform="translate(311.4,687.5)"><circle r="6.5" fill="#7a3b2e" stroke="#3d2418" stroke-width="1.4"/><circle r="2.3" fill="#efe2c4"/></g><g transform="translate(527.3,501.5)"><circle r="6.5" fill="#7a3b2e" stroke="#3d2418" stroke-width="1.4"/><circle r="2.3" fill="#efe2c4"/></g><g transform="translate(348.3,1011.4)"><circle r="6.5" fill="#7a3b2e" stroke="#3d2418" stroke-width="1.4"/><circle r="2.3" fill="#efe2c4"/></g><g transform="translate(228.7,317.0)"><circle r="6.5" fill="#7a3b2e" stroke="#3d2418" stroke-width="1.4"/><circle r="2.3" fill="#efe2c4"/></g><g transform="translate(715.8,756.9)"><circle r="6.5" fill="#7a3b2e" stroke="#3d2418" stroke-width="1.4"/><circle r="2.3" fill="#efe2c4"/></g><g transform="translate(358.8,679.5)"><circle r="6.5" fill="#7a3b2e" stroke="#3d2418" stroke-width="1.4"/><circle r="2.3" fill="#efe2c4"/></g><g transform="translate(873.9,881.8)"><circle r="6.5" fill="#7a3b2e" stroke="#3d2418" stroke-width="1.4"/><circle r="2.3" fill="#efe2c4"/></g><g transform="translate(641.5,392.8)"><circle r="6.5" fill="#7a3b2e" stroke="#3d2418" stroke-width="1.4"/><circle r="2.3" fill="#efe2c4"/></g><g transform="translate(207.9,299.6)"><circle r="6.5" fill="#7a3b2e" stroke="#3d2418" stroke-width="1.4"/><circle r="2.3" fill="#efe2c4"/></g><g transform="translate(330.9,471.5)"><circle r="6.5" fill="#7a3b2e" stroke="#3d2418" stroke-width="1.4"/><circle r="2.3" fill="#efe2c4"/></g><g transform="translate(372.6,924.2)"><circle r="6.5" fill="#7a3b2e" stroke="#3d2418" stroke-width="1.4"/><circle r="2.3" fill="#efe2c4"/></g><g transform="translate(537.9,940.0)"><circle r="6.5" fill="#7a3b2e" stroke="#3d2418" stroke-width="1.4"/><circle r="2.3" fill="#efe2c4"/></g><g transform="translate(372.2,515.4)"><circle r="6.5" fill="#7a3b2e" stroke="#3d2418" stroke-width="1.4"/><circle r="2.3" fill="#efe2c4"/></g><g transform="translate(573.2,1007.9)"><circle r="6.5" fill="#7a3b2e" stroke="#3d2418" stroke-width="1.4"/><circle r="2.3" fill="#efe2c4"/></g><g transform="translate(679.3,226.7)"><circle r="6.5" fill="#7a3b2e" stroke="#3d2418" stroke-width="1.4"/><circle r="2.3" fill="#efe2c4"/></g><g transform="translate(279.7,302.8)"><circle r="6.5" fill="#7a3b2e" stroke="#3d2418" stroke-width="1.4"/><circle r="2.3" fill="#efe2c4"/></g><g transform="translate(578.9,402.8)"><circle r="6.5" fill="#7a3b2e" stroke="#3d2418" stroke-width="1.4"/><circle r="2.3" fill="#efe2c4"/></g><g transform="translate(517.9,72.4)"><circle r="6.5" fill="#7a3b2e" stroke="#3d2418" stroke-width="1.4"/><circle r="2.3" fill="#efe2c4"/></g></g>
<g><text x="311.4" y="676.5" text-anchor="middle" font-size="15" fill="#3d2418" paint-order="stroke" stroke="#efe2c4" stroke-width="3.4" stroke-linejoin="round" font-style="italic">Gravesite Plain</text><text x="372.2" y="504.4" text-anchor="middle" font-size="15" fill="#3d2418" paint-order="stroke" stroke="#efe2c4" stroke-width="3.4" stroke-linejoin="round" font-style="italic">Castle Ensis</text><text x="372.6" y="913.2" text-anchor="middle" font-size="15" fill="#3d2418" paint-order="stroke" stroke="#efe2c4" stroke-width="3.4" stroke-linejoin="round" font-style="italic">Charo's Grave</text><text x="527.3" y="490.5" text-anchor="middle" font-size="15" fill="#3d2418" paint-order="stroke" stroke="#efe2c4" stroke-width="3.4" stroke-linejoin="round" font-style="italic">Scadu Altus</text><text x="517.9" y="61.4" text-anchor="middle" font-size="15" fill="#3d2418" paint-order="stroke" stroke="#efe2c4" stroke-width="3.4" stroke-linejoin="round" font-style="italic">Scaduview</text><text x="348.3" y="1000.4" text-anchor="middle" font-size="15" fill="#3d2418" paint-order="stroke" stroke="#efe2c4" stroke-width="3.4" stroke-linejoin="round" font-style="italic">Cerulean Coast</text><text x="873.9" y="870.8" text-anchor="middle" font-size="15" fill="#3d2418" paint-order="stroke" stroke="#efe2c4" stroke-width="3.4" stroke-linejoin="round" font-style="italic">Jagged Peak</text><text x="228.7" y="306.0" text-anchor="middle" font-size="15" fill="#3d2418" paint-order="stroke" stroke="#efe2c4" stroke-width="3.4" stroke-linejoin="round" font-style="italic">Rauh Base</text><text x="207.9" y="288.6" text-anchor="middle" font-size="15" fill="#3d2418" paint-order="stroke" stroke="#efe2c4" stroke-width="3.4" stroke-linejoin="round" font-style="italic">Ancient Ruins of Rauh</text><text x="715.8" y="745.9" text-anchor="middle" font-size="15" fill="#3d2418" paint-order="stroke" stroke="#efe2c4" stroke-width="3.4" stroke-linejoin="round" font-style="italic">Abyssal Woods</text><text x="679.3" y="215.7" text-anchor="middle" font-size="15" fill="#3d2418" paint-order="stroke" stroke="#efe2c4" stroke-width="3.4" stroke-linejoin="round" font-style="italic">Hinterland</text><text x="578.9" y="391.8" text-anchor="middle" font-size="15" fill="#3d2418" paint-order="stroke" stroke="#efe2c4" stroke-width="3.4" stroke-linejoin="round" font-style="italic">Recluses' River</text><text x="573.2" y="996.9" text-anchor="middle" font-size="15" fill="#3d2418" paint-order="stroke" stroke="#efe2c4" stroke-width="3.4" stroke-linejoin="round" font-style="italic">Finger Ruins of Rhia</text></g>
<rect x="20" y="20" width="1000" height="1259" fill="none" stroke="#6f5a33" stroke-width="2.5"/>
<g transform="translate(520,48)" text-anchor="middle">
  <text y="0" font-size="30" fill="#4a3a1e" letter-spacing="3" font-style="italic">The Land of Shadow</text>
  <text y="20" font-size="12" fill="#6f5a33" letter-spacing="1.5">Archipelago Tracker DLC &#183; region pins at real coordinate centroids</text>
</g>
</svg>