<svg xmlns="http://www.w3.org/2000/svg" width="100%" viewBox="0 0 680 250" role="img">
<title>The Shattering - Elden Ring Archipelago wordmark</title>
<desc>Title graphic reading THE SHATTERING over the subtitle ELDEN RING - ARCHIPELAGO, engraved gold on an ashen background with a broken ring motif.</desc>
<style>
@import url('https://fonts.googleapis.com/css2?family=Cinzel:wght@600;700&amp;display=swap');
.ttl{font-family:'Cinzel',Georgia,'Times New Roman',serif;font-weight:700;}
.sub{font-family:'Cinzel',Georgia,'Times New Roman',serif;font-weight:600;}
</style>
<rect x="0" y="0" width="680" height="250" fill="#0d0b0a"/>
<ellipse cx="340" cy="140" rx="300" ry="120" fill="#241708" opacity="0.55"/>
<ellipse cx="340" cy="150" rx="180" ry="70" fill="#33210c" opacity="0.5"/>
<circle cx="340" cy="150" r="92" fill="none" stroke="#b8974a" stroke-width="2.5" opacity="0.22" stroke-dasharray="74 20 44 28 96 16 52 34 40 24"/>
<polygon points="248,150 214,132 220,158" fill="#caa85a" opacity="0.28"/>
<polygon points="432,150 466,168 460,142" fill="#caa85a" opacity="0.28"/>
<polygon points="340,58 330,30 350,30" fill="#caa85a" opacity="0.2"/>
<g fill="#c9a64d" opacity="0.9">
<circle cx="353" cy="52" r="3.6"/>
<circle cx="346.5" cy="63.3" r="3.6"/>
<circle cx="333.5" cy="63.3" r="3.6"/>
<circle cx="327" cy="52" r="3.6"/>
<circle cx="333.5" cy="40.7" r="3.6"/>
<circle cx="346.5" cy="40.7" r="3.6"/>
<circle cx="340" cy="52" r="2.4" fill="#e7c979"/>
</g>
<text class="ttl" x="341" y="151" text-anchor="middle" font-size="48" letter-spacing="7" fill="#3f2d12">THE SHATTERING</text>
<text class="ttl" x="340" y="150" text-anchor="middle" font-size="48" letter-spacing="7" fill="#e7c979">THE SHATTERING</text>
<line x1="118" y1="184" x2="168" y2="184" stroke="#b8974a" stroke-width="1" opacity="0.7"/>
<line x1="512" y1="184" x2="562" y2="184" stroke="#b8974a" stroke-width="1" opacity="0.7"/>
<text class="sub" x="340" y="189" text-anchor="middle" font-size="17" letter-spacing="4" fill="#c3ad83">ELDEN RING &#183; ARCHIPELAGO</text>
<line x1="255" y1="214" x2="425" y2="214" stroke="#8a6f38" stroke-width="0.75" opacity="0.6"/>
</svg>
